<svg width="100" height="92" viewBox="0 0 100 92" fill="none" xmlns="http://www.w3.org/2000/svg">
<g clip-path="url(#clip0_4042_561)">
<rect width="100" height="92" fill="white"/>
<g clip-path="url(#clip1_4042_561)">
<path d="M100 0H0V92H100V0Z" fill="white"/>
<path d="M100 86.9239V87.2767L98.942 88.7358L97.2294 88.1783V89.9838L95.519 90.5411L96.5769 92H96.3193L95.3107 90.6078L94.8987 90.7433L95.8085 92H95.5532L94.6904 90.81L91.0377 92H90.3681L86.7218 90.8123V88.0279L86.3096 88.5981V91.1136L89.0289 92H88.3593L86.1015 91.264V88.8842L83.8438 92H83.5885L83.4596 91.8236L80.5623 87.8255V88.5314L83.0776 92H82.8223L80.5623 88.8842V91.264L78.3046 92H77.635L72.3577 90.2808L72.1022 90.6336L76.2978 92H75.6282L71.9735 90.81L71.1128 92H70.8554L74.9201 86.3924L74.2505 86.6097L70.3445 92H70.0892L71.1472 90.5411L69.4345 89.9838V88.1783L67.7241 88.7358L66.6659 87.2767L65.6079 88.7358L63.8975 88.1783V89.9838L62.1849 90.5411L63.2428 92H62.9875L61.9789 90.6078L61.5646 90.7433L62.4767 92H62.2213L61.3586 90.81L57.7036 92H57.034L53.3898 90.8123V88.0279L52.9757 88.5981V91.1136L55.6971 92H55.0275L52.7697 91.264V88.8842L50.512 92H50.2544L50.1278 91.8236L47.2305 87.8255V88.5314L49.7435 92H49.4882L47.2305 88.8842V91.264L44.9728 92H44.3032L39.0257 90.2808L38.7683 90.6336L42.9639 92H42.2943L38.6417 90.81L37.7789 92H37.5233L41.5883 86.3924L40.9186 86.6097L37.0127 92H36.7572L37.8131 90.5411L36.1027 89.9838V88.1783L34.39 88.7358L33.332 87.2767L32.2761 88.7358L30.5634 88.1783V89.9838L28.8531 90.5411L29.909 92H29.6534L28.6448 90.6078L28.2305 90.7433L29.1428 92H28.8872L28.0245 90.81L24.3718 92H23.7022L20.0559 90.8123V88.0279L19.6416 88.5981V91.1136L22.363 92H21.6934L19.4356 91.264V88.8842L17.1779 92H16.9226L16.7937 91.8236L13.8964 87.8255V88.5314L16.4117 92H16.1541L13.8964 88.8842V91.264L11.6387 92H10.9691L5.69179 90.2808L5.43624 90.6336L9.63214 92H8.96253L5.30755 90.81L4.44686 92H4.18947L8.25415 86.3924L7.58454 86.6097L3.67861 92H3.42329L4.48127 90.5411L2.76859 89.9838V88.1783L1.05821 88.7358L0 87.2767V86.9239L1.13758 88.4925L2.76859 87.9612V87.5242L1.29426 88.0042L0 86.218V85.8652L2.76859 82.0438V79.1237L0 78.2221V78.0047L2.97688 78.973V81.7574L3.38888 81.1872V78.6717L0 77.568V77.3506L2.76859 76.4469V73.5269L0 69.7052V69.3524L2.76859 73.174V72.4702L0.128921 68.8231L0 68.6488V68.2937L2.76859 64.472V61.5542L0 60.6505V60.4332L2.97688 61.4036V64.1879L3.38888 63.6178V61.1025L0 59.9985V59.7791L2.76859 58.8775V55.9574L0 52.1359V51.7829L2.76859 55.6046V54.8987L0 51.0773V50.7242L1.05821 49.2653L2.76859 49.8226V48.0173L4.48127 47.46L3.42329 46.0012L4.48127 44.54L2.76859 43.9827V42.1795L1.05821 42.7368L0 41.2779V40.925L1.13758 42.4937L2.76859 41.96V41.5253L1.29426 42.0051L0 40.2192V39.8664L2.76859 36.0447V33.1248L0 32.2232V32.0036L2.97688 32.9742V35.7586L3.38888 35.1884V32.6729L0 31.5668V31.3495L2.76859 30.4479V27.528L0 23.7063V23.3535L2.76859 27.175V26.4693L0.128921 22.824L0 22.6476V22.2948L2.76859 18.4731V15.5533L0 14.6517V14.4343L2.97688 15.4026V18.1891L3.38888 17.6169V15.1013L0 13.9973V13.7802L2.76859 12.8763V9.95854L0 6.13686V5.78404L2.76859 9.60572V8.89985L0 5.07817V4.72535L1.05821 3.26439L2.76859 3.82168V2.01848L4.48127 1.46119L3.42329 0H3.67861L4.68726 1.39449L5.10155 1.25879L4.18947 0H4.44686L5.30755 1.19209L8.96253 0H9.63214L13.2761 1.18772V3.97233L13.6904 3.40193V0.88665L10.9691 0H11.6387L13.8964 0.736V3.11788L16.1541 0H16.4117L16.5384 0.17871L19.4356 4.1745V3.47093L16.9226 0H17.1779L19.4356 3.11788V0.736L21.6934 0H22.363L27.6405 1.72155L27.8979 1.3685L23.7022 0H24.3718L28.0245 1.19209L28.8872 0H29.1428L25.0779 5.6097L25.7475 5.39235L29.6534 0H29.909L28.8531 1.46119L30.5634 2.01848V3.82168L32.2761 3.26439L33.332 4.72535L34.39 3.26439L36.1027 3.82168V2.01848L37.8131 1.46119L36.7572 0H37.0127L38.0214 1.39449L38.4354 1.25879L37.5233 0H37.7789L38.6417 1.19209L42.2943 0H42.9639L46.6102 1.18772V3.97233L47.0245 3.40193V0.88665L44.3032 0H44.9728L47.2305 0.736V3.11788L49.4882 0H49.7435L49.8725 0.17871L52.7697 4.1745V3.47093L50.2544 0H50.512L52.7697 3.11788V0.736L55.0275 0H55.6971L60.9743 1.72155L61.2299 1.3685L57.034 0H57.7036L61.3586 1.19209L62.2213 0H62.4767L58.412 5.6097L59.0816 5.39235L62.9875 0H63.2428L62.1849 1.46119L63.8975 2.01848V3.82168L65.6079 3.26439L66.6659 4.72535L67.7241 3.26439L69.4345 3.82168V2.01848L71.1472 1.46119L70.0892 0H70.3445L71.3532 1.39449L71.7675 1.25879L70.8554 0H71.1128L71.9735 1.19209L75.6282 0H76.2978L79.942 1.18772V3.97233L80.3563 3.40193V0.88665L77.635 0H78.3046L80.5623 0.736V3.11788L82.8223 0H83.0776L83.2043 0.17871L86.1015 4.1745V3.47093L83.5885 0H83.8438L86.1015 3.11788V0.736L88.3593 0H89.0289L94.3064 1.72155L94.5638 1.3685L90.3681 0H91.0377L94.6904 1.19209L95.5532 0H95.8085L91.7438 5.6097L92.4134 5.39235L96.3193 0H96.5769L95.519 1.46119L97.2294 2.01848V3.82168L98.942 3.26439L100 4.72535V5.07817L98.8627 3.50957L97.2294 4.0411V4.47787L98.7037 3.99579L100 5.78404V6.13686L97.2294 9.95854V12.8763L100 13.7802V13.9973L97.0234 13.029V10.2426L96.6091 10.8148V13.3303L100 14.4343V14.6517L97.2294 15.5533V18.4731L100 22.2948V22.6476L97.2294 18.826V19.5318L99.8713 23.1771L100 23.3535V23.7063L97.2294 27.528V30.4479L100 31.3495V31.5668L97.0234 30.5985V27.8141L96.6091 28.3843V30.8998L100 32.0036V32.2232L97.2294 33.1248V36.0447L100 39.8664V40.2192L97.2294 36.3977V37.1034L100 40.925V41.2779L98.942 42.7368L97.2294 42.1795V43.9827L95.519 44.54L96.5769 46.0012L95.519 47.46L97.2294 48.0173V49.8226L98.942 49.2653L100 50.7242V51.0773L98.8627 49.5084L97.2294 50.0399V50.4767L98.7037 49.9969L100 51.7829V52.1359L97.2294 55.9574V58.8775L100 59.7791V59.9985L97.0234 59.0281V56.2437L96.6091 56.8139V59.3292L100 60.4332V60.6505L97.2294 61.5542V64.472L100 68.2937V68.6488L97.2294 64.8271V65.5307L99.8713 69.1759L100 69.3524V69.7052L97.2294 73.5269V76.4469L100 77.3506V77.568L97.0234 76.5974V73.813L96.6091 74.3834V76.8987L100 78.0047V78.2221L97.2294 79.1237V82.0438L100 85.8652V86.218L97.2294 82.3966V83.1024L100 86.9239ZM99.8713 5.96045L99.6158 5.60763L94.7698 12.2933L92.128 11.4347L92.5421 12.0049L94.9287 12.7818L99.8713 5.96045ZM99.8713 23.5299L99.7424 23.3535L99.6158 23.1771L94.7698 29.8648L92.128 29.0042L92.5421 29.5743L94.7204 30.2843L94.9287 30.351L99.8713 23.5299ZM99.8713 41.0994L99.6158 40.7486L98.7037 42.0051L92.128 39.862L92.5421 40.4345L98.8627 42.4937L99.8713 41.0994ZM99.8713 51.9595L99.6158 51.6065L94.7698 58.2942L92.128 57.4335L92.5421 58.0037L94.9287 58.7806L99.8713 51.9595ZM99.8713 69.5311L99.7424 69.3524L99.6158 69.1759L94.7698 75.8637L92.128 75.003L92.5421 75.5755L94.7204 76.2855L94.9287 76.3522L99.8713 69.5311ZM99.8713 87.1003L99.6158 86.7475L98.7037 88.0042L92.128 85.8631L92.5421 86.4333L98.8627 88.4925L99.8713 87.1003ZM97.0234 15.4026L99.6653 14.5418L98.9957 14.3246L96.6091 15.1013V21.8127L93.9671 22.6734L94.6367 22.893L97.0234 22.114V15.4026ZM97.0234 32.9742L99.6653 32.1135L98.9957 31.8962L96.6091 32.6729V41.1058L97.0234 41.2392V32.9742ZM97.0234 61.4036L99.6653 60.5429L98.9957 60.3235L96.6091 61.1025V67.8139L93.9671 68.6725L94.6367 68.8919L97.0234 68.1152V61.4036ZM97.0234 78.973L99.6653 78.1124L98.9957 77.895L96.6091 78.6717V87.1047L97.0234 87.2381V78.973ZM99.4871 5.43122L98.6243 4.2412L97.2294 4.69522V8.54703L99.4871 5.43122ZM99.4871 23.0005L97.2294 19.8846V22.2647L94.9716 23.0005L97.2294 23.7365V26.1163L99.4871 23.0005ZM99.4871 40.572L97.2294 37.4541V41.3059L98.6243 41.762L99.4871 40.572ZM99.4871 51.4301L98.6243 50.2401L97.2294 50.6941V54.5459L99.4871 51.4301ZM99.4871 69.0016L97.2294 65.8837V68.2656L94.9716 69.0016L97.2294 69.7353V72.1174L99.4871 69.0016ZM99.4871 86.5711L97.2294 83.4553V87.3068L98.6243 87.7609L99.4871 86.5711ZM96.4031 14.9507L98.6608 14.2147L96.4031 13.481V11.0989L95.0081 13.0249L92.7481 12.291L94.1453 14.2147L93.89 14.5698L92.7481 16.1407L94.5938 15.5402L95.0081 15.4068L96.4031 17.3328V14.9507ZM96.4031 32.5222L98.6608 31.7862L96.4031 31.0505V28.6704L95.0081 30.5964L94.5938 30.4607L92.7481 29.8604L93.89 31.4334L94.1453 31.7862L92.7481 33.7123L95.0081 32.9763L96.4031 34.902V32.5222ZM96.4031 60.9518L98.6608 60.2158L96.4031 59.4798V57.1L95.0081 59.0258L92.7481 58.2901L94.1453 60.2158L93.89 60.5687L92.7481 62.1416L94.5938 61.5413L95.0081 61.4059L96.4031 63.3317V60.9518ZM96.4031 78.5211L98.6608 77.7853L96.4031 77.0516V74.6695L95.0081 76.5953L94.5938 76.4598L92.7481 75.8595L93.89 77.4323L94.1453 77.7853L92.7481 79.7111L95.0081 78.9751L96.4031 80.9011V78.5211ZM97.0234 89.8332V88.1116L96.6091 87.9762V89.5319L90.0334 91.6729L90.7028 91.8924L97.0234 89.8332ZM97.0234 72.4015V69.886L89.0245 67.2824L88.7692 67.6352L96.6091 70.1893V72.9739L97.0234 72.4015ZM97.0234 54.832V48.168L95.39 47.6364L95.1347 47.9893L96.6091 48.4693V55.4022L97.0234 54.832ZM97.0234 43.832V42.1128L96.6091 41.9773V43.5307L90.0334 45.6741L90.7028 45.8914L97.0234 43.832ZM97.0234 26.4026V23.8871L89.0245 21.2812L88.7692 21.6343L96.6091 24.1884V26.9728L97.0234 26.4026ZM97.0234 8.83108V2.16913L95.39 1.6376L95.1347 1.99042L96.6091 2.4702V9.40332L97.0234 8.83108ZM96.4031 89.3812V87.9094L92.7481 86.7194L95.0081 89.8352L96.4031 89.3812ZM96.4031 87.0359V82.3126L94.6904 79.9521L91.922 80.8537L90.2094 83.2142L91.922 85.577L96.4031 87.0359ZM96.4031 81.9598V81.2539L94.9287 79.2205L91.8725 80.2146L88.5611 81.2949L86.9299 79.0418V79.7456L88.4045 81.7811L91.4584 80.787L94.7698 79.7067L96.4031 81.9598ZM96.4031 73.2578V70.34L93.6324 69.4363L89.1534 70.8973L91.922 74.7189L94.6904 75.6206L96.4031 73.2578ZM96.4031 67.6632V64.7432L94.6904 62.3806L91.922 63.2822L89.1534 67.1059L93.6324 68.5648L96.4031 67.6632ZM96.4031 64.3903V63.6845L94.9287 61.649L94.7204 61.7177L86.9299 64.2549V64.6916L94.7698 62.1375L96.4031 64.3903ZM96.4031 55.6885V50.9652L91.922 52.4241L90.2094 54.7869L91.922 57.1474L94.6904 58.0511L96.4031 55.6885ZM96.4031 50.7458V50.3091L88.5611 52.8632L86.9299 50.6103V51.316L88.4045 53.3517L88.6105 53.285L96.4031 50.7458ZM96.4031 50.0917V48.6197L95.0081 48.1657L92.7481 51.2815L96.4031 50.0917ZM96.4031 43.3803V41.9083L92.7481 40.7185L95.0081 43.8364L96.4031 43.3803ZM96.4031 41.0368V36.3138L94.6904 33.951L91.922 34.8549L90.2094 37.2154L91.922 39.5779L96.4031 41.0368ZM96.4031 35.9607V35.2551L94.9287 33.2194L91.8725 34.2157L88.5611 35.2937L86.9299 33.0409V33.7465L88.4045 35.7823L91.4584 34.7859L94.7698 33.7079L96.4031 35.9607ZM96.4031 27.2589V24.3391L93.6324 23.4375L89.1534 24.8963L91.922 28.7178L94.6904 29.6217L96.4031 27.2589ZM96.4031 21.6621V18.7422L94.6904 16.3818L91.922 17.2834L89.1534 21.1048L93.6324 22.5637L96.4031 21.6621ZM96.4031 18.3915V17.6835L94.9287 15.6501L94.7204 15.7168L86.9299 18.2558V18.6905L94.7698 16.1363L96.4031 18.3915ZM96.4031 9.68944V4.96432L91.922 6.42528L90.2094 8.78577L91.922 11.1486L94.6904 12.0502L96.4031 9.68944ZM96.4031 4.74697V4.30997L88.5611 6.86435L86.9299 4.61127V5.31714L88.4045 7.35264L88.6105 7.28387L96.4031 4.74697ZM96.4031 4.09262V2.62085L95.0081 2.16683L92.7481 5.28264L96.4031 4.09262ZM96.3193 46.0012L95.3107 44.609L94.8987 44.7424L95.8085 46.0012L91.7438 51.6088L92.4134 51.3914L96.3193 46.0012ZM95.5532 46.0012L94.6904 44.8111L91.0377 46.0012L94.6904 47.1909L95.5532 46.0012ZM94.7998 43.9031L89.9538 37.2154L91.5871 34.9623L91.2524 35.072L90.9175 35.1797L89.4432 37.2154L89.5719 37.3918L94.3858 44.0386L94.7998 43.9031ZM94.7998 89.9019L89.9538 83.2142L91.5871 80.9634L91.2524 81.0711L90.9175 81.1808L89.4432 83.2142L89.5719 83.3929L94.3858 90.0376L94.7998 89.9019ZM94.3064 47.7204L94.5638 47.3676L86.7218 44.8132V42.0288L86.3096 42.599V45.1145L94.3064 47.7204ZM91.4112 5.71941L94.1798 1.89796L89.6985 0.43677L86.9299 1.33837V4.25845L88.6405 6.62101L91.4112 5.71941ZM94.1798 44.1053L91.4112 40.2838L88.6405 39.3799L86.9299 41.7427V44.6628L89.6985 45.5644L94.1798 44.1053ZM91.4112 51.7185L94.1798 47.8968L89.6985 46.4358L86.9299 47.3395V50.2594L88.6405 52.6201L91.4112 51.7185ZM94.1798 90.1043L91.4112 86.2827L88.6405 85.3811L86.9299 87.7438V90.6616L89.6985 91.5653L94.1798 90.1043ZM93.89 14.2147L89.9538 8.78577L91.5871 6.53292L90.9175 6.75234L89.5719 8.60936L89.4432 8.78577L93.3771 14.2147L91.7438 16.4678L92.4134 16.2504L93.7611 14.3913L93.89 14.2147ZM93.89 31.7862L93.7611 31.6098L88.9451 24.9651L88.5311 25.0985L93.3771 31.7862L91.7438 34.0393L92.0808 33.9296L92.4134 33.822L93.89 31.7862ZM93.89 60.2158L89.9538 54.7869L91.5871 52.5338L90.9175 52.7512L89.5719 54.6105L89.4432 54.7869L93.3771 60.2158L91.7438 62.4687L92.4134 62.2513L93.7611 60.3923L93.89 60.2158ZM93.89 77.7853L93.7611 77.6089L88.9451 70.964L88.5311 71.0974L93.3771 77.7853L91.7438 80.0382L92.0808 79.9305L92.4134 79.8208L93.89 77.7853ZM86.7218 25.4709L93.2975 23.3275L92.6302 23.1104L86.3096 25.1696V26.8909L86.7218 27.0243V25.4709ZM86.7218 71.4697L93.2975 69.3287L92.6302 69.1093L86.3096 71.1684V72.89L86.7218 73.0234V71.4697ZM93.1215 14.2147L91.4112 11.8542L88.6405 10.9526L86.9299 13.3131V18.0364L91.4112 16.5775L93.1215 14.2147ZM93.1215 31.7862L91.4112 29.4237L86.9299 27.9648V32.6878L88.6405 35.0506L91.4112 34.149L93.1215 31.7862ZM93.1215 60.2158L91.4112 57.8533L88.6405 56.9514L86.9299 59.3122V64.0375L91.4112 62.5763L93.1215 60.2158ZM93.1215 77.7853L91.4112 75.4248L86.9299 73.9636V78.6869L88.6405 81.0495L91.4112 80.1479L93.1215 77.7853ZM88.6405 24.1905L92.2932 23.0005L88.6405 21.8107L87.7777 23.0005L88.6405 24.1905ZM88.6405 70.1916L92.2932 69.0016L88.6405 67.8095L87.7777 69.0016L88.6405 70.1916ZM87.5222 23.0005L91.5871 17.3931L90.9175 17.6104L87.0116 23.0005L88.0202 24.3929L88.4345 24.2593L87.5222 23.0005ZM87.5222 69.0016L91.5871 63.3919L90.9175 63.6113L87.0116 69.0016L88.0202 70.3938L88.4345 70.2583L87.5222 69.0016ZM91.2029 11.5681L90.7909 10.9979L88.4045 10.221L83.4596 17.0423L83.7172 17.3951L88.5611 10.7074L91.2029 11.5681ZM91.2029 29.1396L90.7909 28.5672L84.4682 26.508L83.4596 27.9025L83.7172 28.253L84.6272 26.9965L91.2029 29.1396ZM91.2029 39.9977L90.7909 39.4273L88.6105 38.7173L88.4045 38.6506L83.4596 45.4717L83.5885 45.6481L83.7172 45.8247L88.5611 39.1368L91.2029 39.9977ZM91.2029 57.5692L90.7909 56.9968L88.4045 56.2201L83.4596 63.0412L83.7172 63.394L88.5611 56.7083L91.2029 57.5692ZM91.2029 75.1385L90.7909 74.5683L84.4682 72.5091L83.4596 73.9013L83.7172 74.2541L84.6272 72.9953L91.2029 75.1385ZM91.2029 85.9986L90.7909 85.4264L88.6105 84.7161L88.4045 84.6494L83.4596 91.4708L83.5885 91.6472L83.7172 91.8236L88.5611 85.1379L91.2029 85.9986ZM89.4432 8.43295L90.5828 6.85998L88.7392 7.46235L88.3249 7.59575L86.9299 5.66996V8.05L84.6722 8.78577L86.9299 9.52177V11.9016L88.3249 9.97579L90.5828 10.7116L89.1876 8.78577L89.4432 8.43295ZM88.3249 20.8359L90.5828 17.7201L86.9299 18.9099V20.3819L88.3249 20.8359ZM90.5828 28.2833L88.3249 25.1675L86.9299 25.6215V27.0933L90.5828 28.2833ZM89.1876 37.2154L90.5828 35.2894L88.3249 36.0254L86.9299 34.0996V36.4794L84.6722 37.2154L86.9299 37.9512V40.3312L88.3249 38.4052L88.7392 38.5409L90.5828 39.1412L89.4432 37.5682L89.1876 37.2154ZM89.4432 54.4339L90.5828 52.8611L88.7392 53.4614L88.3249 53.5948L86.9299 51.6688V54.0509L84.6722 54.7869L86.9299 55.5206V57.9027L88.3249 55.9767L90.5828 56.7127L89.1876 54.7869L89.4432 54.4339ZM88.3249 66.8348L90.5828 63.719L86.9299 64.909V66.3808L88.3249 66.8348ZM90.5828 74.2822L88.3249 71.1664L86.9299 71.6204V73.0922L90.5828 74.2822ZM89.1876 83.2142L90.5828 81.2884L88.3249 82.0265L86.9299 80.0984V82.4805L84.6722 83.2142L86.9299 83.9502V86.3321L88.3249 84.4063L88.7392 84.5397L90.5828 85.14L89.4432 83.5671L89.1876 83.2142ZM86.7218 1.18772L89.3638 0.32706L88.6942 0.10971L86.3096 0.88665V7.59805L83.6679 8.45871L84.3375 8.67813L86.7218 7.89935V1.18772ZM86.7218 47.1889L89.3638 46.3282L88.6942 46.1088L86.3096 46.8876V53.599L83.6679 54.4599L84.3375 54.6772L86.7218 53.9003V47.1889ZM86.1015 46.7369L88.3593 46.0012L86.1015 45.2652V42.8853L83.8438 46.0012L86.1015 49.117V46.7369ZM87.9408 21.3652L88.1962 21.0123L86.7218 20.5323V13.5994L86.3096 14.1696V20.8336L87.9408 21.3652ZM87.9408 67.364L88.1962 67.0112L86.7218 66.5314V59.5983L86.3096 60.1708V66.8327L87.9408 67.364ZM86.756 23.0005L87.8142 21.5416L86.1015 20.9843V19.179L84.3912 19.7363L83.333 18.2774L82.275 19.7363L80.5623 19.179V20.9843L78.8519 21.5416L79.9099 23.0005L78.8519 24.4617L80.5623 25.0189V26.8221L82.275 26.2648L83.333 27.7237L84.3912 26.2648L86.1015 26.8221V25.0189L87.8142 24.4617L86.756 23.0005ZM86.756 69.0016L87.8142 67.5407L86.1015 66.9834V65.1799L84.3912 65.7374L83.333 64.2763L82.275 65.7374L80.5623 65.1799V66.9834L78.8519 67.5407L79.9099 69.0016L78.8519 70.4605L80.5623 71.0178V72.8233L82.275 72.266L83.333 73.7249L84.3912 72.266L86.1015 72.8233V71.0178L87.8142 70.4605L86.756 69.0016ZM86.7218 86.6162V84.1009L80.3563 82.0265V79.2421L79.942 79.8144V82.3299L86.3096 84.4019V87.1866L86.7218 86.6162ZM86.7218 82.3299V73.8969L86.3096 73.7615V82.0265L83.6679 82.8872L84.3375 83.1066L86.7218 82.3299ZM86.7218 58.1868V55.6713L80.3563 53.599V50.8125L79.942 51.385V53.9003L86.3096 55.9726V58.759L86.7218 58.1868ZM86.7218 40.6173V38.1018L80.3563 36.0274V33.243L79.942 33.8132V36.3287L86.3096 38.4031V41.1875L86.7218 40.6173ZM86.7218 36.3287V27.8958L86.3096 27.7624V36.0274L83.6679 36.8883L84.3375 37.1057L86.7218 36.3287ZM86.7218 12.1877V9.67242L80.3563 7.59805V4.81367L79.942 5.38384V7.89935L86.3096 9.97349V12.7581L86.7218 12.1877ZM86.1015 87.4727V84.5526L83.333 83.651L80.5623 84.5526V87.4727L83.333 91.2941L86.1015 87.4727ZM86.1015 81.8779V78.9581L83.333 75.1364L80.5623 78.9581V81.8779L83.333 82.7795L86.1015 81.8779ZM86.1015 78.605V77.8994L82.1956 72.5091L80.5623 73.0406V73.4774L82.0389 72.9953L86.1015 78.605ZM86.1015 77.5463V73.6948L84.7066 73.2407L83.8438 74.4305L86.1015 77.5463ZM86.1015 64.9605V64.5237L84.6272 65.0058L80.5623 59.3961V60.1018L84.4682 65.492L86.1015 64.9605ZM86.1015 64.3064V60.4548L83.8438 63.5704L84.7066 64.7604L86.1015 64.3064ZM86.1015 59.0431V56.1253L83.333 55.2216L80.5623 56.1253V59.0431L83.333 62.8648L86.1015 59.0431ZM86.1015 53.4486V50.5285L83.333 46.7068L80.5623 50.5285V53.4486L83.333 54.3502L86.1015 53.4486ZM86.1015 50.1757V49.4698L83.4596 45.8247L80.5623 41.8267V42.5323L83.2043 46.1776L86.1015 50.1757ZM86.1015 41.4738V38.5538L83.333 37.6522L80.5623 38.5538V41.4738L83.333 45.2953L86.1015 41.4738ZM86.1015 35.877V32.9569L83.333 29.1353L80.5623 32.9569V35.877L83.333 36.7786L86.1015 35.877ZM86.1015 32.6041V31.8982L82.1956 26.508L80.5623 27.0416V27.4763L82.0389 26.9965L86.1015 32.6041ZM86.1015 31.5454V27.6936L84.7066 27.2396L83.8438 28.4296L86.1015 31.5454ZM86.1015 18.9617V18.5249L84.6272 19.0047L80.5623 13.397V14.1029L84.4682 19.4932L86.1015 18.9617ZM86.1015 18.3075V14.4557L83.8438 17.5715L84.7066 18.7616L86.1015 18.3075ZM86.1015 13.0442V10.1241L83.333 9.22254L80.5623 10.1241V13.0442L83.333 16.8657L86.1015 13.0442ZM86.1015 7.4474V4.52962L83.333 0.70587L80.5623 4.52962V7.4474L83.333 8.35107L86.1015 7.4474ZM83.2043 0.52946L83.0776 0.35282L82.9489 0.17871L78.1029 6.86435L75.463 6.00346L75.875 6.57593L78.0557 7.28387L78.2617 7.35264L83.2043 0.52946ZM83.2043 18.101L82.9489 17.748L82.0389 19.0047L75.463 16.8636L75.875 17.4338L82.1956 19.4932L83.2043 18.101ZM83.2043 28.9588L82.9489 28.606L78.1029 35.2937L75.463 34.4331L75.875 35.0053L78.2617 35.7823L83.2043 28.9588ZM83.2043 46.5304L83.0776 46.354L82.9489 46.1776L78.1029 52.8632L75.463 52.0046L75.875 52.5748L78.0557 53.285L78.2617 53.3517L83.2043 46.5304ZM83.2043 64.0998L82.9489 63.747L82.0389 65.0058L75.463 62.8624L75.875 63.4328L82.1956 65.492L83.2043 64.0998ZM83.2043 74.96L82.9489 74.6069L78.1029 81.2949L75.463 80.4342L75.875 81.0044L78.2617 81.7811L83.2043 74.96ZM80.3563 9.97349L82.9983 9.11283L82.3287 8.89548L79.942 9.67242V18.1051L80.3563 18.2385V9.97349ZM80.3563 38.4031L82.9983 37.5424L82.3287 37.3251L79.942 38.1018V44.8132L77.3023 45.6741L77.9699 45.8914L80.3563 45.1145V38.4031ZM80.3563 55.9726L82.9983 55.114L82.3287 54.8946L79.942 55.6713V64.1042L80.3563 64.2397V55.9726ZM80.3563 84.4019L82.9983 83.5434L82.3287 83.3239L79.942 84.1009V90.8123L77.3023 91.6729L77.9699 91.8924L80.3563 91.1136V84.4019ZM82.8223 17.5715L80.5623 14.4557V18.3075L81.9596 18.7616L82.8223 17.5715ZM82.8223 28.4296L81.9596 27.2396L80.5623 27.6936V31.5454L82.8223 28.4296ZM82.8223 46.0012L80.5623 42.8853V45.2652L78.3046 46.0012L80.5623 46.7369V49.117L82.8223 46.0012ZM82.8223 63.5704L80.5623 60.4548V64.3064L81.9596 64.7604L82.8223 63.5704ZM82.8223 74.4305L81.9596 73.2407L80.5623 73.6948V77.5463L82.8223 74.4305ZM79.736 9.52177L81.9937 8.78577L79.736 8.05V5.66996L78.3411 7.59575L77.9268 7.46235L76.0833 6.85998L77.223 8.43295L77.4783 8.78577L76.0833 10.7116L78.3411 9.97579L79.736 11.9016V9.52177ZM79.736 37.9512L81.9937 37.2154L79.736 36.4794V34.0996L78.3411 36.0254L76.0833 35.2894L77.4783 37.2154L77.223 37.5682L76.0833 39.1412L77.9268 38.5409L78.3411 38.4052L79.736 40.3312V37.9512ZM79.736 55.5206L81.9937 54.7869L79.736 54.0509V51.6688L78.3411 53.5948L77.9268 53.4614L76.0833 52.8611L77.223 54.4339L77.4783 54.7869L76.0833 56.7127L78.3411 55.9767L79.736 57.9027V55.5206ZM79.736 83.9502L81.9937 83.2142L79.736 82.4805V80.0984L78.3411 82.0265L76.0833 81.2884L77.4783 83.2142L77.223 83.5671L76.0833 85.14L77.9268 84.5397L78.3411 84.4063L79.736 86.3321V83.9502ZM80.3563 77.8327V71.1684L78.7253 70.6369L78.4677 70.99L79.942 71.4697V78.4029L80.3563 77.8327ZM80.3563 66.8327V65.1112L79.942 64.9778V66.5314L73.3664 68.6725L74.036 68.8919L80.3563 66.8327ZM80.3563 49.4031V46.8876L72.3577 44.2819L72.1022 44.6347L79.942 47.1889V49.9733L80.3563 49.4031ZM80.3563 31.8315V25.1696L78.7253 24.6381L78.4677 24.9888L79.942 25.4709V32.404L80.3563 31.8315ZM80.3563 20.8336V19.1123L79.942 18.9766V20.5323L73.3664 22.6734L74.036 22.893L80.3563 20.8336ZM79.736 90.6616V87.7438L78.0233 85.3811L75.255 86.2827L72.4864 90.1043L76.9674 91.5653L79.736 90.6616ZM79.736 87.3887V86.6852L78.2617 84.6494L78.0557 84.7161L70.2628 87.2553V87.6921L78.1029 85.1379L79.736 87.3887ZM79.736 78.6869V73.9636L75.255 75.4248L73.5444 77.7853L75.255 80.1479L78.0233 81.0495L79.736 78.6869ZM79.736 73.7463V73.3095L71.8961 75.8637L70.2628 73.6108V74.3164L71.7374 76.3522L71.9434 76.2855L79.736 73.7463ZM79.736 73.0922V71.6204L78.3411 71.1664L76.0833 74.2822L79.736 73.0922ZM79.736 66.3808V64.909L76.0833 63.719L78.3411 66.8348L79.736 66.3808ZM79.736 64.0375V59.3122L78.0233 56.9514L75.255 57.8533L73.5444 60.2158L75.255 62.5763L79.736 64.0375ZM79.736 58.9614V58.2556L78.2617 56.2201L75.2054 57.2162L71.8961 58.2942L70.2628 56.0413V56.7472L71.7374 58.7806L74.7934 57.7866L78.1029 56.7083L79.736 58.9614ZM79.736 50.2594V47.3395L76.9674 46.4358L72.4864 47.8968L75.255 51.7185L78.0233 52.6201L79.736 50.2594ZM79.736 44.6628V41.7427L78.0233 39.3799L75.255 40.2838L72.4864 44.1053L76.9674 45.5644L79.736 44.6628ZM79.736 41.3899V40.684L78.2617 38.6506L78.0557 38.7173L70.2628 41.2565V41.691L78.1029 39.1368L79.736 41.3899ZM79.736 32.6878V27.9648L75.255 29.4237L73.5444 31.7862L75.255 34.149L78.0233 35.0506L79.736 32.6878ZM79.736 27.7454V27.3107L71.8961 29.8648L70.2628 27.612V28.3176L71.7374 30.351L71.9434 30.2843L79.736 27.7454ZM79.736 27.0933V25.6215L78.3411 25.1675L76.0833 28.2833L79.736 27.0933ZM79.736 20.3819V18.9099L76.0833 17.7201L78.3411 20.8359L79.736 20.3819ZM79.736 18.0364V13.3131L78.0233 10.9526L75.255 11.8542L73.5444 14.2147L75.255 16.5775L79.736 18.0364ZM79.736 12.9603V12.2544L78.2617 10.221L75.2054 11.2153L71.8961 12.2933L70.2628 10.0402V10.7461L71.7374 12.7818L74.7934 11.7854L78.1029 10.7074L79.736 12.9603ZM79.736 4.25845V1.33837L76.9674 0.43677L72.4864 1.89796L75.255 5.71941L78.0233 6.62101L79.736 4.25845ZM79.6546 23.0005L78.6459 21.6083L78.2316 21.744L79.1416 23.0005L75.0788 28.6104L75.7484 28.3907L79.6546 23.0005ZM79.6546 69.0016L78.6459 67.6073L78.2316 67.7428L79.1416 69.0016L75.0788 74.6092L75.7484 74.3919L79.6546 69.0016ZM78.8861 23.0005L78.0233 21.8107L74.3707 23.0005L78.0233 24.1905L78.8861 23.0005ZM78.8861 69.0016L78.0233 67.8095L74.3707 69.0016L78.0233 70.1916L78.8861 69.0016ZM78.133 20.9026L73.2891 14.2147L74.9201 11.9639L74.5854 12.0715L74.2505 12.1813L72.7761 14.2147L72.9048 14.3913L77.7208 21.0381L78.133 20.9026ZM78.133 66.9036L73.2891 60.2158L74.9201 57.963L74.5854 58.0727L74.2505 58.1803L72.7761 60.2158L72.9048 60.3923L77.7208 67.0369L78.133 66.9036ZM77.6414 24.7199L77.8967 24.3669L70.0568 21.8127V19.0284L69.6428 19.5985V22.114L77.6414 24.7199ZM77.6414 70.7209L77.8967 70.368L70.0568 67.8139V65.0295L69.6428 65.5997V68.1152L77.6414 70.7209ZM77.5127 21.1048L74.7441 17.2834L71.9735 16.3818L70.2628 18.7422V21.6621L73.0314 22.5637L77.5127 21.1048ZM74.7441 28.7178L77.5127 24.8963L73.0314 23.4375L70.2628 24.3391V27.2589L71.9735 29.6217L74.7441 28.7178ZM77.5127 67.1059L74.7441 63.2822L71.9735 62.3806L70.2628 64.7432V67.6632L73.0314 68.5648L77.5127 67.1059ZM74.7441 74.7189L77.5127 70.8973L73.0314 69.4363L70.2628 70.34V73.2578L71.9735 75.6206L74.7441 74.7189ZM77.223 8.78577L77.0941 8.60936L72.2781 1.96466L71.8661 2.10013L76.7121 8.78577L75.0788 11.0386L75.4137 10.9312L75.7484 10.8215L77.223 8.78577ZM77.223 37.2154L73.2891 31.7862L74.9201 29.5334L74.2505 29.7507L72.9048 31.6098L72.7761 31.7862L76.7121 37.2154L75.0788 39.4682L75.7484 39.2509L77.0941 37.3918L77.223 37.2154ZM77.223 54.7869L77.0941 54.6105L72.2781 47.9635L71.8661 48.099L76.7121 54.7869L75.0788 57.0398L75.4137 56.9301L75.7484 56.8203L77.223 54.7869ZM77.223 83.2142L73.2891 77.7853L74.9201 75.5322L74.2505 75.7519L72.9048 77.6089L72.7761 77.7853L76.7121 83.2142L75.0788 85.4694L75.7484 85.2497L77.0941 83.3929L77.223 83.2142ZM70.0568 2.4702L76.6327 0.32706L75.9631 0.10971L69.6428 2.16913V3.89045L70.0568 4.02385V2.4702ZM70.0568 48.4693L76.6327 46.3282L75.9631 46.1088L69.6428 48.168V49.8893L70.0568 50.025V48.4693ZM76.4545 8.78577L74.7441 6.42528L70.2628 4.96432V9.68944L71.9735 12.0502L74.7441 11.1486L76.4545 8.78577ZM76.4545 37.2154L74.7441 34.8549L71.9735 33.951L70.2628 36.3138V41.0368L74.7441 39.5779L76.4545 37.2154ZM76.4545 54.7869L74.7441 52.4241L70.2628 50.9652V55.6885L71.9735 58.0511L74.7441 57.1474L76.4545 54.7869ZM76.4545 83.2142L74.7441 80.8537L71.9735 79.9521L70.2628 82.3126V87.0359L74.7441 85.577L76.4545 83.2142ZM71.9735 47.1909L75.6282 46.0012L71.9735 44.8111L71.1128 46.0012L71.9735 47.1909ZM70.8554 46.0012L74.9201 40.3915L74.2505 40.6109L70.3445 46.0012L71.3532 47.3933L71.7675 47.2576L70.8554 46.0012ZM74.5358 6.13916L74.1238 5.56876L67.8035 3.50957L66.7948 4.90176L67.0501 5.25481L67.9602 3.99579L74.5358 6.13916ZM74.5358 16.997L74.1238 16.4268L71.9434 15.7168L71.7374 15.6501L66.7948 22.4712L66.9215 22.6476L67.0501 22.824L71.8961 16.1363L74.5358 16.997ZM74.5358 34.5685L74.1238 33.9984L71.7374 33.2194L66.7948 40.0428L67.0501 40.3956L71.8961 33.7079L74.5358 34.5685ZM74.5358 52.138L74.1238 51.5678L67.8035 49.5084L66.7948 50.9006L67.0501 51.2537L67.9602 49.9969L74.5358 52.138ZM74.5358 62.9982L74.1238 62.4257L71.9434 61.7177L71.7374 61.649L66.7948 68.4724L66.9215 68.6488L67.0501 68.8231L71.8961 62.1375L74.5358 62.9982ZM74.5358 80.5676L74.1238 79.9972L71.7374 79.2205L66.7948 86.0416L67.0501 86.3947L71.8961 79.7067L74.5358 80.5676ZM73.9158 5.28264L71.658 2.16683L70.2628 2.62085V4.09262L73.9158 5.28264ZM72.5208 14.2147L73.9158 12.291L71.658 13.0249L70.2628 11.0989V13.481L68.0051 14.2147L70.2628 14.9507V17.3328L71.658 15.4068L72.0721 15.5402L73.9158 16.1407L72.7761 14.5698L72.5208 14.2147ZM72.7761 31.4334L73.9158 29.8604L72.0721 30.4607L71.658 30.5964L70.2628 28.6704V31.0505L68.0051 31.7862L70.2628 32.5222V34.902L71.658 32.9763L73.9158 33.7123L72.5208 31.7862L72.7761 31.4334ZM71.658 43.8364L73.9158 40.7185L70.2628 41.9083V43.3803L71.658 43.8364ZM73.9158 51.2815L71.658 48.1657L70.2628 48.6197V50.0917L73.9158 51.2815ZM72.5208 60.2158L73.9158 58.2901L71.658 59.0258L70.2628 57.1V59.4798L68.0051 60.2158L70.2628 60.9518V63.3317L71.658 61.4059L72.0721 61.5413L73.9158 62.1416L72.7761 60.5687L72.5208 60.2158ZM72.7761 77.4323L73.9158 75.8595L72.0721 76.4598L71.658 76.5953L70.2628 74.6695V77.0516L68.0051 77.7853L70.2628 78.5211V80.9011L71.658 78.9751L73.9158 79.7111L72.5208 77.7853L72.7761 77.4323ZM71.658 89.8352L73.9158 86.7194L70.2628 87.9094V89.3812L71.658 89.8352ZM70.0568 24.1884L72.6967 23.3275L72.0292 23.1104L69.6428 23.8871V30.5985L67.0008 31.4592L67.6704 31.6765L70.0568 30.8998V24.1884ZM70.0568 70.1893L72.6967 69.3287L72.0292 69.1093L69.6428 69.886V76.5974L67.0008 77.4583L67.6704 77.6756L70.0568 76.8987V70.1893ZM69.4345 23.7365L71.6945 23.0005L69.4345 22.2647V19.8846L67.1768 23.0005L69.4345 26.1163V23.7365ZM69.4345 69.7353L71.6945 69.0016L69.4345 68.2656V65.8837L67.1768 69.0016L69.4345 72.1174V69.7353ZM71.2759 44.3656L71.5314 44.0107L70.0568 43.5307V36.5978L69.6428 37.1701V43.832L71.2759 44.3656ZM71.2759 90.3647L71.5314 90.0117L70.0568 89.5319V82.5988L69.6428 83.1692V89.8332L71.2759 90.3647ZM70.0892 46.0012L71.1472 44.54L69.4345 43.9827V42.1795L67.7241 42.7368L66.6659 41.2779L65.6079 42.7368L63.8975 42.1795V43.9827L62.1849 44.54L63.2428 46.0012L62.1849 47.46L63.8975 48.0173V49.8226L65.6079 49.2653L66.6659 50.7242L67.7241 49.2653L69.4345 49.8226V48.0173L71.1472 47.46L70.0892 46.0012ZM70.0568 81.1872V78.6717L63.6893 76.5974V73.813L63.2773 74.3834V76.8987L69.6428 78.973V81.7574L70.0568 81.1872ZM70.0568 63.6178V61.1025L63.6893 59.0281V56.2437L63.2773 56.8139V59.3292L69.6428 61.4036V64.1879L70.0568 63.6178ZM70.0568 59.3292V50.8965L69.6428 50.7631V59.0281L67.0008 59.8888L67.6704 60.1061L70.0568 59.3292ZM70.0568 35.1884V32.6729L63.6893 30.5985V27.8141L63.2773 28.3843V30.8998L69.6428 32.9742V35.7586L70.0568 35.1884ZM70.0568 17.6169V15.1013L63.6893 13.029V10.2426L63.2773 10.8148V13.3303L69.6428 15.4026V18.1891L70.0568 17.6169ZM70.0568 13.3303V4.89739L69.6428 4.76192V13.029L67.0008 13.8876L67.6704 14.1073L70.0568 13.3303ZM69.4345 87.9612V87.5242L67.9602 88.0042L63.8975 82.3966V83.1024L67.8035 88.4925L69.4345 87.9612ZM69.4345 87.3068V83.4553L67.1768 86.5711L68.0395 87.7609L69.4345 87.3068ZM69.4345 82.0438V79.1237L66.6659 78.2221L63.8975 79.1237V82.0438L66.6659 85.8652L69.4345 82.0438ZM69.4345 76.4469V73.5269L66.6659 69.7052L63.8975 73.5269V76.4469L66.6659 77.3506L69.4345 76.4469ZM69.4345 73.174V72.4702L66.7948 68.8231L63.8975 64.8271V65.5307L66.5372 69.1759L69.4345 73.174ZM69.4345 64.472V61.5542L66.6659 60.6505L63.8975 61.5542V64.472L66.6659 68.2937L69.4345 64.472ZM69.4345 58.8775V55.9574L66.6659 52.1359L63.8975 55.9574V58.8775L66.6659 59.7791L69.4345 58.8775ZM69.4345 55.6046V54.8987L65.5286 49.5084L63.8975 50.0399V50.4767L65.3719 49.9969L69.4345 55.6046ZM69.4345 54.5459V50.6941L68.0395 50.2401L67.1768 51.4301L69.4345 54.5459ZM69.4345 41.96V41.5253L67.9602 42.0051L63.8975 36.3977V37.1034L67.8035 42.4937L69.4345 41.96ZM69.4345 41.3059V37.4541L67.1768 40.572L68.0395 41.762L69.4345 41.3059ZM69.4345 36.0447V33.1248L66.6659 32.2232L63.8975 33.1248V36.0447L66.6659 39.8664L69.4345 36.0447ZM69.4345 30.4479V27.528L66.6659 23.7063L63.8975 27.528V30.4479L66.6659 31.3495L69.4345 30.4479ZM69.4345 27.175V26.4693L66.7948 22.824L63.8975 18.826V19.5318L66.5372 23.1771L69.4345 27.175ZM69.4345 18.4731V15.5533L66.6659 14.6517L63.8975 15.5533V18.4731L66.6659 22.2948L69.4345 18.4731ZM69.4345 12.8763V9.95854L66.6659 6.13686L63.8975 9.95854V12.8763L66.6659 13.7802L69.4345 12.8763ZM69.4345 9.60572V8.89985L65.5286 3.50957L63.8975 4.0411V4.47787L65.3719 3.99579L69.4345 9.60572ZM69.4345 8.54703V4.69522L68.0395 4.2412L67.1768 5.43122L69.4345 8.54703ZM66.5372 5.96045L66.2819 5.60763L61.438 12.2933L58.796 11.4347L59.2082 12.0049L61.5946 12.7818L66.5372 5.96045ZM66.5372 23.5299L66.4106 23.3535L66.2819 23.1771L61.438 29.8648L58.796 29.0042L59.2082 29.5743L61.3886 30.2843L61.5946 30.351L66.5372 23.5299ZM66.5372 41.0994L66.2819 40.7486L65.3719 42.0051L58.796 39.862L59.2082 40.4345L65.5286 42.4937L66.5372 41.0994ZM66.5372 51.9595L66.2819 51.6065L61.438 58.2942L58.796 57.4335L59.2082 58.0037L61.5946 58.7806L66.5372 51.9595ZM66.5372 69.5311L66.4106 69.3524L66.2819 69.1759L61.438 75.8637L58.796 75.003L59.2082 75.5755L61.3886 76.2855L61.5946 76.3522L66.5372 69.5311ZM66.5372 87.1003L66.2819 86.7475L65.3719 88.0042L58.796 85.8631L59.2082 86.4333L65.5286 88.4925L66.5372 87.1003ZM63.6893 15.4026L66.3312 14.5418L65.6616 14.3246L63.2773 15.1013V21.8127L60.6353 22.6734L61.3049 22.893L63.6893 22.114V15.4026ZM63.6893 32.9742L66.3312 32.1135L65.6616 31.8962L63.2773 32.6729V41.1058L63.6893 41.2392V32.9742ZM63.6893 61.4036L66.3312 60.5429L65.6616 60.3235L63.2773 61.1025V67.8139L60.6353 68.6725L61.3049 68.8919L63.6893 68.1152V61.4036ZM63.6893 78.973L66.3312 78.1124L65.6616 77.895L63.2773 78.6717V87.1047L63.6893 87.2381V78.973ZM66.1553 5.43122L65.2925 4.2412L63.8975 4.69522V8.54703L66.1553 5.43122ZM66.1553 23.0005L63.8975 19.8846V22.2647L61.6398 23.0005L63.8975 23.7365V26.1163L66.1553 23.0005ZM66.1553 40.572L63.8975 37.4541V41.3059L65.2925 41.762L66.1553 40.572ZM66.1553 51.4301L65.2925 50.2401L63.8975 50.6941V54.5459L66.1553 51.4301ZM66.1553 69.0016L63.8975 65.8837V68.2656L61.6398 69.0016L63.8975 69.7353V72.1174L66.1553 69.0016ZM66.1553 86.5711L63.8975 83.4553V87.3068L65.2925 87.7609L66.1553 86.5711ZM63.069 14.9507L65.3267 14.2147L63.069 13.481V11.0989L61.674 13.0249L59.4163 12.291L60.8112 14.2147L60.5559 14.5698L59.4163 16.1407L61.2599 15.5402L61.674 15.4068L63.069 17.3328V14.9507ZM63.069 32.5222L65.3267 31.7862L63.069 31.0505V28.6704L61.674 30.5964L61.2599 30.4607L59.4163 29.8604L60.5559 31.4334L60.8112 31.7862L59.4163 33.7123L61.674 32.9763L63.069 34.902V32.5222ZM63.069 60.9518L65.3267 60.2158L63.069 59.4798V57.1L61.674 59.0258L59.4163 58.2901L60.8112 60.2158L60.5559 60.5687L59.4163 62.1416L61.2599 61.5413L61.674 61.4059L63.069 63.3317V60.9518ZM63.069 78.5211L65.3267 77.7853L63.069 77.0516V74.6695L61.674 76.5953L61.2599 76.4598L59.4163 75.8595L60.5559 77.4323L60.8112 77.7853L59.4163 79.7111L61.674 78.9751L63.069 80.9011V78.5211ZM63.6893 89.8332V88.1116L63.2773 87.9762V89.5319L56.6993 91.6729L57.3689 91.8924L63.6893 89.8332ZM63.6893 72.4015V69.886L55.6906 67.2824L55.4351 67.6352L63.2773 70.1893V72.9739L63.6893 72.4015ZM63.6893 54.832V48.168L62.0582 47.6364L61.8006 47.9893L63.2773 48.4693V55.4022L63.6893 54.832ZM63.6893 43.832V42.1128L63.2773 41.9773V43.5307L56.6993 45.6741L57.3689 45.8914L63.6893 43.832ZM63.6893 26.4026V23.8871L55.6906 21.2812L55.4351 21.6343L63.2773 24.1884V26.9728L63.6893 26.4026ZM63.6893 8.83108V2.16913L62.0582 1.6376L61.8006 1.99042L63.2773 2.4702V9.40332L63.6893 8.83108ZM63.069 89.3812V87.9094L59.4163 86.7194L61.674 89.8352L63.069 89.3812ZM63.069 87.0359V82.3126L61.3586 79.9521L58.5879 80.8537L56.8773 83.2142L58.5879 85.577L63.069 87.0359ZM63.069 81.9598V81.2539L61.5946 79.2205L58.5386 80.2146L55.2291 81.2949L53.596 79.0418V79.7456L55.0704 81.7811L58.1264 80.787L61.438 79.7067L63.069 81.9598ZM63.069 73.2578V70.34L60.3006 69.4363L55.8193 70.8973L58.5879 74.7189L61.3586 75.6206L63.069 73.2578ZM63.069 67.6632V64.7432L61.3586 62.3806L58.5879 63.2822L55.8193 67.1059L60.3006 68.5648L63.069 67.6632ZM63.069 64.3903V63.6845L61.5946 61.649L61.3886 61.7177L53.596 64.2549V64.6916L61.438 62.1375L63.069 64.3903ZM63.069 55.6885V50.9652L58.5879 52.4241L56.8773 54.7869L58.5879 57.1474L61.3586 58.0511L63.069 55.6885ZM63.069 50.7458V50.3091L55.2291 52.8632L53.596 50.6103V51.316L55.0704 53.3517L55.2784 53.285L63.069 50.7458ZM63.069 50.0917V48.6197L61.674 48.1657L59.4163 51.2815L63.069 50.0917ZM63.069 43.3803V41.9083L59.4163 40.7185L61.674 43.8364L63.069 43.3803ZM63.069 41.0368V36.3138L61.3586 33.951L58.5879 34.8549L56.8773 37.2154L58.5879 39.5779L63.069 41.0368ZM63.069 35.9607V35.2551L61.5946 33.2194L58.5386 34.2157L55.2291 35.2937L53.596 33.0409V33.7465L55.0704 35.7823L58.1264 34.7859L61.438 33.7079L63.069 35.9607ZM63.069 27.2589V24.3391L60.3006 23.4375L55.8193 24.8963L58.5879 28.7178L61.3586 29.6217L63.069 27.2589ZM63.069 21.6621V18.7422L61.3586 16.3818L58.5879 17.2834L55.8193 21.1048L60.3006 22.5637L63.069 21.6621ZM63.069 18.3915V17.6835L61.5946 15.6501L61.3886 15.7168L53.596 18.2558V18.6905L61.438 16.1363L63.069 18.3915ZM63.069 9.68944V4.96432L58.5879 6.42528L56.8773 8.78577L58.5879 11.1486L61.3586 12.0502L63.069 9.68944ZM63.069 4.74697V4.30997L55.2291 6.86435L53.596 4.61127V5.31714L55.0704 7.35264L55.2784 7.28387L63.069 4.74697ZM63.069 4.09262V2.62085L61.674 2.16683L59.4163 5.28264L63.069 4.09262ZM62.9875 46.0012L61.9789 44.609L61.5646 44.7424L62.4767 46.0012L58.412 51.6088L59.0816 51.3914L62.9875 46.0012ZM62.2213 46.0012L61.3586 44.8111L57.7036 46.0012L61.3586 47.1909L62.2213 46.0012ZM61.468 43.9031L56.622 37.2154L58.253 34.9623L57.9204 35.072L57.5834 35.1797L56.1091 37.2154L56.2378 37.3918L61.0537 44.0386L61.468 43.9031ZM61.468 89.9019L56.622 83.2142L58.253 80.9634L57.9204 81.0711L57.5834 81.1808L56.1091 83.2142L56.2378 83.3929L61.0537 90.0376L61.468 89.9019ZM60.9743 47.7204L61.2299 47.3676L53.3898 44.8132V42.0288L52.9757 42.599V45.1145L60.9743 47.7204ZM58.0771 5.71941L60.8477 1.89796L56.3667 0.43677L53.596 1.33837V4.25845L55.3085 6.62101L58.0771 5.71941ZM60.8477 44.1053L58.0771 40.2838L55.3085 39.3799L53.596 41.7427V44.6628L56.3667 45.5644L60.8477 44.1053ZM58.0771 51.7185L60.8477 47.8968L56.3667 46.4358L53.596 47.3395V50.2594L55.3085 52.6201L58.0771 51.7185ZM60.8477 90.1043L58.0771 86.2827L55.3085 85.3811L53.596 87.7438V90.6616L56.3667 91.5653L60.8477 90.1043ZM60.5559 14.2147L56.622 8.78577L58.253 6.53292L57.5834 6.75234L56.2378 8.60936L56.1091 8.78577L60.0451 14.2147L58.412 16.4678L59.0816 16.2504L60.4272 14.3913L60.5559 14.2147ZM60.5559 31.7862L60.4272 31.6098L55.6133 24.9651L55.1991 25.0985L60.0451 31.7862L58.412 34.0393L58.7467 33.9296L59.0816 33.822L60.5559 31.7862ZM60.5559 60.2158L56.622 54.7869L58.253 52.5338L57.5834 52.7512L56.2378 54.6105L56.1091 54.7869L60.0451 60.2158L58.412 62.4687L59.0816 62.2513L60.4272 60.3923L60.5559 60.2158ZM60.5559 77.7853L60.4272 77.6089L55.6133 70.964L55.1991 71.0974L60.0451 77.7853L58.412 80.0382L58.7467 79.9305L59.0816 79.8208L60.5559 77.7853ZM53.3898 25.4709L59.9657 23.3275L59.2961 23.1104L52.9757 25.1696V26.8909L53.3898 27.0243V25.4709ZM53.3898 71.4697L59.9657 69.3287L59.2961 69.1093L52.9757 71.1684V72.89L53.3898 73.0234V71.4697ZM59.7897 14.2147L58.0771 11.8542L55.3085 10.9526L53.596 13.3131V18.0364L58.0771 16.5775L59.7897 14.2147ZM59.7897 31.7862L58.0771 29.4237L53.596 27.9648V32.6878L55.3085 35.0506L58.0771 34.149L59.7897 31.7862ZM59.7897 60.2158L58.0771 57.8533L55.3085 56.9514L53.596 59.3122V64.0375L58.0771 62.5763L59.7897 60.2158ZM59.7897 77.7853L58.0771 75.4248L53.596 73.9636V78.6869L55.3085 81.0495L58.0771 80.1479L59.7897 77.7853ZM55.3085 24.1905L58.9614 23.0005L55.3085 21.8107L54.4457 23.0005L55.3085 24.1905ZM55.3085 70.1916L58.9614 69.0016L55.3085 67.8095L54.4457 69.0016L55.3085 70.1916ZM54.1904 23.0005L58.253 17.3931L57.5834 17.6104L53.6775 23.0005L54.6884 24.3929L55.1004 24.2593L54.1904 23.0005ZM54.1904 69.0016L58.253 63.3919L57.5834 63.6113L53.6775 69.0016L54.6884 70.3938L55.1004 70.2583L54.1904 69.0016ZM57.8711 11.5681L57.4568 10.9979L55.0704 10.221L50.1278 17.0423L50.3831 17.3951L55.2291 10.7074L57.8711 11.5681ZM57.8711 29.1396L57.4568 28.5672L51.1364 26.508L50.1278 27.9025L50.3831 28.253L51.2952 26.9965L57.8711 29.1396ZM57.8711 39.9977L57.4568 39.4273L55.2784 38.7173L55.0704 38.6506L50.1278 45.4717L50.2544 45.6481L50.3831 45.8247L55.2291 39.1368L57.8711 39.9977ZM57.8711 57.5692L57.4568 56.9968L55.0704 56.2201L50.1278 63.0412L50.3831 63.394L55.2291 56.7083L57.8711 57.5692ZM57.8711 75.1385L57.4568 74.5683L51.1364 72.5091L50.1278 73.9013L50.3831 74.2541L51.2952 72.9953L57.8711 75.1385ZM57.8711 85.9986L57.4568 85.4264L55.2784 84.7161L55.0704 84.6494L50.1278 91.4708L50.2544 91.6472L50.3831 91.8236L55.2291 85.1379L57.8711 85.9986ZM56.1091 8.43295L57.2508 6.85998L55.405 7.46235L54.991 7.59575L53.596 5.66996V8.05L51.3381 8.78577L53.596 9.52177V11.9016L54.991 9.97579L57.2508 10.7116L55.8538 8.78577L56.1091 8.43295ZM54.991 20.8359L57.2508 17.7201L53.596 18.9099V20.3819L54.991 20.8359ZM57.2508 28.2833L54.991 25.1675L53.596 25.6215V27.0933L57.2508 28.2833ZM55.8538 37.2154L57.2508 35.2894L54.991 36.0254L53.596 34.0996V36.4794L51.3381 37.2154L53.596 37.9512V40.3312L54.991 38.4052L55.405 38.5409L57.2508 39.1412L56.1091 37.5682L55.8538 37.2154ZM56.1091 54.4339L57.2508 52.8611L55.405 53.4614L54.991 53.5948L53.596 51.6688V54.0509L51.3381 54.7869L53.596 55.5206V57.9027L54.991 55.9767L57.2508 56.7127L55.8538 54.7869L56.1091 54.4339ZM54.991 66.8348L57.2508 63.719L53.596 64.909V66.3808L54.991 66.8348ZM57.2508 74.2822L54.991 71.1664L53.596 71.6204V73.0922L57.2508 74.2822ZM55.8538 83.2142L57.2508 81.2884L54.991 82.0265L53.596 80.0984V82.4805L51.3381 83.2142L53.596 83.9502V86.3321L54.991 84.4063L55.405 84.5397L57.2508 85.14L56.1091 83.5671L55.8538 83.2142ZM53.3898 1.18772L56.0318 0.32706L55.3621 0.10971L52.9757 0.88665V7.59805L50.3338 8.45871L51.0034 8.67813L53.3898 7.89935V1.18772ZM53.3898 47.1889L56.0318 46.3282L55.3621 46.1088L52.9757 46.8876V53.599L50.3338 54.4599L51.0034 54.6772L53.3898 53.9003V47.1889ZM52.7697 46.7369L55.0275 46.0012L52.7697 45.2652V42.8853L50.512 46.0012L52.7697 49.117V46.7369ZM54.6088 21.3652L54.8644 21.0123L53.3898 20.5323V13.5994L52.9757 14.1696V20.8336L54.6088 21.3652ZM54.6088 67.364L54.8644 67.0112L53.3898 66.5314V59.5983L52.9757 60.1708V66.8327L54.6088 67.364ZM53.4221 23.0005L54.4801 21.5416L52.7697 20.9843V19.179L51.0571 19.7363L49.9991 18.2774L48.9409 19.7363L47.2305 19.179V20.9843L45.5199 21.5416L46.5758 23.0005L45.5199 24.4617L47.2305 25.0189V26.8221L48.9409 26.2648L49.9991 27.7237L51.0571 26.2648L52.7697 26.8221V25.0189L54.4801 24.4617L53.4221 23.0005ZM53.4221 69.0016L54.4801 67.5407L52.7697 66.9834V65.1799L51.0571 65.7374L49.9991 64.2763L48.9409 65.7374L47.2305 65.1799V66.9834L45.5199 67.5407L46.5758 69.0016L45.5199 70.4605L47.2305 71.0178V72.8233L48.9409 72.266L49.9991 73.7249L51.0571 72.266L52.7697 72.8233V71.0178L54.4801 70.4605L53.4221 69.0016ZM53.3898 86.6162V84.1009L47.0245 82.0265V79.2421L46.6102 79.8144V82.3299L52.9757 84.4019V87.1866L53.3898 86.6162ZM53.3898 82.3299V73.8969L52.9757 73.7615V82.0265L50.3338 82.8872L51.0034 83.1066L53.3898 82.3299ZM53.3898 58.1868V55.6713L47.0245 53.599V50.8125L46.6102 51.385V53.9003L52.9757 55.9726V58.759L53.3898 58.1868ZM53.3898 40.6173V38.1018L47.0245 36.0274V33.243L46.6102 33.8132V36.3287L52.9757 38.4031V41.1875L53.3898 40.6173ZM53.3898 36.3287V27.8958L52.9757 27.7624V36.0274L50.3338 36.8883L51.0034 37.1057L53.3898 36.3287ZM53.3898 12.1877V9.67242L47.0245 7.59805V4.81367L46.6102 5.38384V7.89935L52.9757 9.97349V12.7581L53.3898 12.1877ZM52.7697 87.4727V84.5526L49.9991 83.651L47.2305 84.5526V87.4727L49.9991 91.2941L52.7697 87.4727ZM52.7697 81.8779V78.9581L49.9991 75.1364L47.2305 78.9581V81.8779L49.9991 82.7795L52.7697 81.8779ZM52.7697 78.605V77.8994L48.8636 72.5091L47.2305 73.0406V73.4774L48.7048 72.9953L52.7697 78.605ZM52.7697 77.5463V73.6948L51.3725 73.2407L50.512 74.4305L52.7697 77.5463ZM52.7697 64.9605V64.5237L51.2952 65.0058L47.2305 59.3961V60.1018L51.1364 65.492L52.7697 64.9605ZM52.7697 64.3064V60.4548L50.512 63.5704L51.3725 64.7604L52.7697 64.3064ZM52.7697 59.0431V56.1253L49.9991 55.2216L47.2305 56.1253V59.0431L49.9991 62.8648L52.7697 59.0431ZM52.7697 53.4486V50.5285L49.9991 46.7068L47.2305 50.5285V53.4486L49.9991 54.3502L52.7697 53.4486ZM52.7697 50.1757V49.4698L50.1278 45.8247L47.2305 41.8267V42.5323L49.8725 46.1776L52.7697 50.1757ZM52.7697 41.4738V38.5538L49.9991 37.6522L47.2305 38.5538V41.4738L49.9991 45.2953L52.7697 41.4738ZM52.7697 35.877V32.9569L49.9991 29.1353L47.2305 32.9569V35.877L49.9991 36.7786L52.7697 35.877ZM52.7697 32.6041V31.8982L48.8636 26.508L47.2305 27.0416V27.4763L48.7048 26.9965L52.7697 32.6041ZM52.7697 31.5454V27.6936L51.3725 27.2396L50.512 28.4296L52.7697 31.5454ZM52.7697 18.9617V18.5249L51.2952 19.0047L47.2305 13.397V14.1029L51.1364 19.4932L52.7697 18.9617ZM52.7697 18.3075V14.4557L50.512 17.5715L51.3725 18.7616L52.7697 18.3075ZM52.7697 13.0442V10.1241L49.9991 9.22254L47.2305 10.1241V13.0442L49.9991 16.8657L52.7697 13.0442ZM52.7697 7.4474V4.52962L49.9991 0.70587L47.2305 4.52962V7.4474L49.9991 8.35107L52.7697 7.4474ZM49.8725 0.52946L49.7435 0.35282L49.6169 0.17871L44.7709 6.86435L42.1289 6.00346L42.5432 6.57593L44.7216 7.28387L44.9276 7.35264L49.8725 0.52946ZM49.8725 18.101L49.6169 17.748L48.7048 19.0047L42.1289 16.8636L42.5432 17.4338L48.8636 19.4932L49.8725 18.101ZM49.8725 28.9588L49.6169 28.606L44.7709 35.2937L42.1289 34.4331L42.5432 35.0053L44.9276 35.7823L49.8725 28.9588ZM49.8725 46.5304L49.7435 46.354L49.6169 46.1776L44.7709 52.8632L42.1289 52.0046L42.5432 52.5748L44.7216 53.285L44.9276 53.3517L49.8725 46.5304ZM49.8725 64.0998L49.6169 63.747L48.7048 65.0058L42.1289 62.8624L42.5432 63.4328L48.8636 65.492L49.8725 64.0998ZM49.8725 74.96L49.6169 74.6069L44.7709 81.2949L42.1289 80.4342L42.5432 81.0044L44.9276 81.7811L49.8725 74.96ZM47.0245 9.97349L49.6642 9.11283L48.9946 8.89548L46.6102 9.67242V18.1051L47.0245 18.2385V9.97349ZM47.0245 38.4031L49.6642 37.5424L48.9946 37.3251L46.6102 38.1018V44.8132L43.9682 45.6741L44.6379 45.8914L47.0245 45.1145V38.4031ZM47.0245 55.9726L49.6642 55.114L48.9946 54.8946L46.6102 55.6713V64.1042L47.0245 64.2397V55.9726ZM47.0245 84.4019L49.6642 83.5434L48.9946 83.3239L46.6102 84.1009V90.8123L43.9682 91.6729L44.6379 91.8924L47.0245 91.1136V84.4019ZM49.4882 17.5715L47.2305 14.4557V18.3075L48.6255 18.7616L49.4882 17.5715ZM49.4882 28.4296L48.6255 27.2396L47.2305 27.6936V31.5454L49.4882 28.4296ZM49.4882 46.0012L47.2305 42.8853V45.2652L44.9728 46.0012L47.2305 46.7369V49.117L49.4882 46.0012ZM49.4882 63.5704L47.2305 60.4548V64.3064L48.6255 64.7604L49.4882 63.5704ZM49.4882 74.4305L48.6255 73.2407L47.2305 73.6948V77.5463L49.4882 74.4305ZM46.4021 9.52177L48.6619 8.78577L46.4021 8.05V5.66996L45.007 7.59575L44.5929 7.46235L42.7492 6.85998L43.8889 8.43295L44.1442 8.78577L42.7492 10.7116L45.007 9.97579L46.4021 11.9016V9.52177ZM46.4021 37.9512L48.6619 37.2154L46.4021 36.4794V34.0996L45.007 36.0254L42.7492 35.2894L44.1442 37.2154L43.8889 37.5682L42.7492 39.1412L44.5929 38.5409L45.007 38.4052L46.4021 40.3312V37.9512ZM46.4021 55.5206L48.6619 54.7869L46.4021 54.0509V51.6688L45.007 53.5948L44.5929 53.4614L42.7492 52.8611L43.8889 54.4339L44.1442 54.7869L42.7492 56.7127L45.007 55.9767L46.4021 57.9027V55.5206ZM46.4021 83.9502L48.6619 83.2142L46.4021 82.4805V80.0984L45.007 82.0265L42.7492 81.2884L44.1442 83.2142L43.8889 83.5671L42.7492 85.14L44.5929 84.5397L45.007 84.4063L46.4021 86.3321V83.9502ZM47.0245 77.8327V71.1684L45.3912 70.6369L45.1359 70.99L46.6102 71.4697V78.4029L47.0245 77.8327ZM47.0245 66.8327V65.1112L46.6102 64.9778V66.5314L40.0343 68.6725L40.7039 68.8919L47.0245 66.8327ZM47.0245 49.4031V46.8876L39.0257 44.2819L38.7683 44.6347L46.6102 47.1889V49.9733L47.0245 49.4031ZM47.0245 31.8315V25.1696L45.3912 24.6381L45.1359 24.9888L46.6102 25.4709V32.404L47.0245 31.8315ZM47.0245 20.8336V19.1123L46.6102 18.9766V20.5323L40.0343 22.6734L40.7039 22.893L47.0245 20.8336ZM46.4021 90.6616V87.7438L44.6915 85.3811L41.9229 86.2827L39.1523 90.1043L43.6336 91.5653L46.4021 90.6616ZM46.4021 87.3887V86.6852L44.9276 84.6494L44.7216 84.7161L36.931 87.2553V87.6921L44.7709 85.1379L46.4021 87.3887ZM46.4021 78.6869V73.9636L41.9229 75.4248L40.2105 77.7853L41.9229 80.1479L44.6915 81.0495L46.4021 78.6869ZM46.4021 73.7463V73.3095L38.5621 75.8637L36.931 73.6108V74.3164L38.4033 76.3522L38.6116 76.2855L46.4021 73.7463ZM46.4021 73.0922V71.6204L45.007 71.1664L42.7492 74.2822L46.4021 73.0922ZM46.4021 66.3808V64.909L42.7492 63.719L45.007 66.8348L46.4021 66.3808ZM46.4021 64.0375V59.3122L44.6915 56.9514L41.9229 57.8533L40.2105 60.2158L41.9229 62.5763L46.4021 64.0375ZM46.4021 58.9614V58.2556L44.9276 56.2201L41.8736 57.2162L38.5621 58.2942L36.931 56.0413V56.7472L38.4033 58.7806L41.4596 57.7866L44.7709 56.7083L46.4021 58.9614ZM46.4021 50.2594V47.3395L43.6336 46.4358L39.1523 47.8968L41.9229 51.7185L44.6915 52.6201L46.4021 50.2594ZM46.4021 44.6628V41.7427L44.6915 39.3799L41.9229 40.2838L39.1523 44.1053L43.6336 45.5644L46.4021 44.6628ZM46.4021 41.3899V40.684L44.9276 38.6506L44.7216 38.7173L36.931 41.2565V41.691L44.7709 39.1368L46.4021 41.3899ZM46.4021 32.6878V27.9648L41.9229 29.4237L40.2105 31.7862L41.9229 34.149L44.6915 35.0506L46.4021 32.6878ZM46.4021 27.7454V27.3107L38.5621 29.8648L36.931 27.612V28.3176L38.4033 30.351L38.6116 30.2843L46.4021 27.7454ZM46.4021 27.0933V25.6215L45.007 25.1675L42.7492 28.2833L46.4021 27.0933ZM46.4021 20.3819V18.9099L42.7492 17.7201L45.007 20.8359L46.4021 20.3819ZM46.4021 18.0364V13.3131L44.6915 10.9526L41.9229 11.8542L40.2105 14.2147L41.9229 16.5775L46.4021 18.0364ZM46.4021 12.9603V12.2544L44.9276 10.221L41.8736 11.2153L38.5621 12.2933L36.931 10.0402V10.7461L38.4033 12.7818L41.4596 11.7854L44.7709 10.7074L46.4021 12.9603ZM46.4021 4.25845V1.33837L43.6336 0.43677L39.1523 1.89796L41.9229 5.71941L44.6915 6.62101L46.4021 4.25845ZM46.3205 23.0005L45.3118 21.6083L44.8975 21.744L45.8096 23.0005L41.7449 28.6104L42.4145 28.3907L46.3205 23.0005ZM46.3205 69.0016L45.3118 67.6073L44.8975 67.7428L45.8096 69.0016L41.7449 74.6092L42.4145 74.3919L46.3205 69.0016ZM45.5543 23.0005L44.6915 21.8107L41.0388 23.0005L44.6915 24.1905L45.5543 23.0005ZM45.5543 69.0016L44.6915 67.8095L41.0388 69.0016L44.6915 70.1916L45.5543 69.0016ZM44.801 20.9026L39.9549 14.2147L41.5883 11.9639L41.2533 12.0715L40.9186 12.1813L39.4443 14.2147L39.5709 14.3913L44.3869 21.0381L44.801 20.9026ZM44.801 66.9036L39.9549 60.2158L41.5883 57.963L41.2533 58.0727L40.9186 58.1803L39.4443 60.2158L39.5709 60.3923L44.3869 67.0369L44.801 66.9036ZM44.3073 24.7199L44.5628 24.3669L36.723 21.8127V19.0284L36.3087 19.5985V22.114L44.3073 24.7199ZM44.3073 70.7209L44.5628 70.368L36.723 67.8139V65.0295L36.3087 65.5997V68.1152L44.3073 70.7209ZM44.1807 21.1048L41.41 17.2834L38.6417 16.3818L36.931 18.7422V21.6621L39.6996 22.5637L44.1807 21.1048ZM41.41 28.7178L44.1807 24.8963L39.6996 23.4375L36.931 24.3391V27.2589L38.6417 29.6217L41.41 28.7178ZM44.1807 67.1059L41.41 63.2822L38.6417 62.3806L36.931 64.7432V67.6632L39.6996 68.5648L44.1807 67.1059ZM41.41 74.7189L44.1807 70.8973L39.6996 69.4363L36.931 70.34V73.2578L38.6417 75.6206L41.41 74.7189ZM43.8889 8.78577L43.7602 8.60936L38.9463 1.96466L38.532 2.10013L43.378 8.78577L41.7449 11.0386L42.0796 10.9312L42.4145 10.8215L43.8889 8.78577ZM43.8889 37.2154L39.9549 31.7862L41.5883 29.5334L40.9186 29.7507L39.5709 31.6098L39.4443 31.7862L43.378 37.2154L41.7449 39.4682L42.4145 39.2509L43.7602 37.3918L43.8889 37.2154ZM43.8889 54.7869L43.7602 54.6105L38.9463 47.9635L38.532 48.099L43.378 54.7869L41.7449 57.0398L42.0796 56.9301L42.4145 56.8203L43.8889 54.7869ZM43.8889 83.2142L39.9549 77.7853L41.5883 75.5322L40.9186 75.7519L39.5709 77.6089L39.4443 77.7853L43.378 83.2142L41.7449 85.4694L42.4145 85.2497L43.7602 83.3929L43.8889 83.2142ZM36.723 2.4702L43.2986 0.32706L42.629 0.10971L36.3087 2.16913V3.89045L36.723 4.02385V2.4702ZM36.723 48.4693L43.2986 46.3282L42.629 46.1088L36.3087 48.168V49.8893L36.723 50.025V48.4693ZM43.1227 8.78577L41.41 6.42528L36.931 4.96432V9.68944L38.6417 12.0502L41.41 11.1486L43.1227 8.78577ZM43.1227 37.2154L41.41 34.8549L38.6417 33.951L36.931 36.3138V41.0368L41.41 39.5779L43.1227 37.2154ZM43.1227 54.7869L41.41 52.4241L36.931 50.9652V55.6885L38.6417 58.0511L41.41 57.1474L43.1227 54.7869ZM43.1227 83.2142L41.41 80.8537L38.6417 79.9521L36.931 82.3126V87.0359L41.41 85.577L43.1227 83.2142ZM38.6417 47.1909L42.2943 46.0012L38.6417 44.8111L37.7789 46.0012L38.6417 47.1909ZM37.5233 46.0012L41.5883 40.3915L40.9186 40.6109L37.0127 46.0012L38.0214 47.3933L38.4354 47.2576L37.5233 46.0012ZM41.204 6.13916L40.79 5.56876L34.4694 3.50957L33.4607 4.90176L33.716 5.25481L34.6284 3.99579L41.204 6.13916ZM41.204 16.997L40.79 16.4268L38.6116 15.7168L38.4033 15.6501L33.4607 22.4712L33.5894 22.6476L33.716 22.824L38.5621 16.1363L41.204 16.997ZM41.204 34.5685L40.79 33.9984L38.4033 33.2194L33.4607 40.0428L33.716 40.3956L38.5621 33.7079L41.204 34.5685ZM41.204 52.138L40.79 51.5678L34.4694 49.5084L33.4607 50.9006L33.716 51.2537L34.6284 49.9969L41.204 52.138ZM41.204 62.9982L40.79 62.4257L38.6116 61.7177L38.4033 61.649L33.4607 68.4724L33.5894 68.6488L33.716 68.8231L38.5621 62.1375L41.204 62.9982ZM41.204 80.5676L40.79 79.9972L38.4033 79.2205L33.4607 86.0416L33.716 86.3947L38.5621 79.7067L41.204 80.5676ZM40.5837 5.28264L38.326 2.16683L36.931 2.62085V4.09262L40.5837 5.28264ZM39.1888 14.2147L40.5837 12.291L38.326 13.0249L36.931 11.0989V13.481L34.6713 14.2147L36.931 14.9507V17.3328L38.326 15.4068L38.7382 15.5402L40.5837 16.1407L39.4443 14.5698L39.1888 14.2147ZM39.4443 31.4334L40.5837 29.8604L38.7382 30.4607L38.326 30.5964L36.931 28.6704V31.0505L34.6713 31.7862L36.931 32.5222V34.902L38.326 32.9763L40.5837 33.7123L39.1888 31.7862L39.4443 31.4334ZM38.326 43.8364L40.5837 40.7185L36.931 41.9083V43.3803L38.326 43.8364ZM40.5837 51.2815L38.326 48.1657L36.931 48.6197V50.0917L40.5837 51.2815ZM39.1888 60.2158L40.5837 58.2901L38.326 59.0258L36.931 57.1V59.4798L34.6713 60.2158L36.931 60.9518V63.3317L38.326 61.4059L38.7382 61.5413L40.5837 62.1416L39.4443 60.5687L39.1888 60.2158ZM39.4443 77.4323L40.5837 75.8595L38.7382 76.4598L38.326 76.5953L36.931 74.6695V77.0516L34.6713 77.7853L36.931 78.5211V80.9011L38.326 78.9751L40.5837 79.7111L39.1888 77.7853L39.4443 77.4323ZM38.326 89.8352L40.5837 86.7194L36.931 87.9094V89.3812L38.326 89.8352ZM36.723 24.1884L39.3647 23.3275L38.6951 23.1104L36.3087 23.8871V30.5985L33.6667 31.4592L34.3363 31.6765L36.723 30.8998V24.1884ZM36.723 70.1893L39.3647 69.3287L38.6951 69.1093L36.3087 69.886V76.5974L33.6667 77.4583L34.3363 77.6756L36.723 76.8987V70.1893ZM36.1027 23.7365L38.3604 23.0005L36.1027 22.2647V19.8846L33.845 23.0005L36.1027 26.1163V23.7365ZM36.1027 69.7353L38.3604 69.0016L36.1027 68.2656V65.8837L33.845 69.0016L36.1027 72.1174V69.7353ZM37.942 44.3656L38.1973 44.0107L36.723 43.5307V36.5978L36.3087 37.1701V43.832L37.942 44.3656ZM37.942 90.3647L38.1973 90.0117L36.723 89.5319V82.5988L36.3087 83.1692V89.8332L37.942 90.3647ZM36.7572 46.0012L37.8131 44.54L36.1027 43.9827V42.1795L34.39 42.7368L33.332 41.2779L32.2761 42.7368L30.5634 42.1795V43.9827L28.8531 44.54L29.909 46.0012L28.8531 47.46L30.5634 48.0173V49.8226L32.2761 49.2653L33.332 50.7242L34.39 49.2653L36.1027 49.8226V48.0173L37.8131 47.46L36.7572 46.0012ZM36.723 81.1872V78.6717L30.3574 76.5974V73.813L29.9432 74.3834V76.8987L36.3087 78.973V81.7574L36.723 81.1872ZM36.723 63.6178V61.1025L30.3574 59.0281V56.2437L29.9432 56.8139V59.3292L36.3087 61.4036V64.1879L36.723 63.6178ZM36.723 59.3292V50.8965L36.3087 50.7631V59.0281L33.6667 59.8888L34.3363 60.1061L36.723 59.3292ZM36.723 35.1884V32.6729L30.3574 30.5985V27.8141L29.9432 28.3843V30.8998L36.3087 32.9742V35.7586L36.723 35.1884ZM36.723 17.6169V15.1013L30.3574 13.029V10.2426L29.9432 10.8148V13.3303L36.3087 15.4026V18.1891L36.723 17.6169ZM36.723 13.3303V4.89739L36.3087 4.76192V13.029L33.6667 13.8876L34.3363 14.1073L36.723 13.3303ZM36.1027 87.9612V87.5242L34.6284 88.0042L30.5634 82.3966V83.1024L34.4694 88.4925L36.1027 87.9612ZM36.1027 87.3068V83.4553L33.845 86.5711L34.7077 87.7609L36.1027 87.3068ZM36.1027 82.0438V79.1237L33.332 78.2221L30.5634 79.1237V82.0438L33.332 85.8652L36.1027 82.0438ZM36.1027 76.4469V73.5269L33.332 69.7052L30.5634 73.5269V76.4469L33.332 77.3506L36.1027 76.4469ZM36.1027 73.174V72.4702L33.4607 68.8231L30.5634 64.8271V65.5307L33.2054 69.1759L36.1027 73.174ZM36.1027 64.472V61.5542L33.332 60.6505L30.5634 61.5542V64.472L33.332 68.2937L36.1027 64.472ZM36.1027 58.8775V55.9574L33.332 52.1359L30.5634 55.9574V58.8775L33.332 59.7791L36.1027 58.8775ZM36.1027 55.6046V54.8987L32.1968 49.5084L30.5634 50.0399V50.4767L32.0378 49.9969L36.1027 55.6046ZM36.1027 54.5459V50.6941L34.7077 50.2401L33.845 51.4301L36.1027 54.5459ZM36.1027 41.96V41.5253L34.6284 42.0051L30.5634 36.3977V37.1034L34.4694 42.4937L36.1027 41.96ZM36.1027 41.3059V37.4541L33.845 40.572L34.7077 41.762L36.1027 41.3059ZM36.1027 36.0447V33.1248L33.332 32.2232L30.5634 33.1248V36.0447L33.332 39.8664L36.1027 36.0447ZM36.1027 30.4479V27.528L33.332 23.7063L30.5634 27.528V30.4479L33.332 31.3495L36.1027 30.4479ZM36.1027 27.175V26.4693L33.4607 22.824L30.5634 18.826V19.5318L33.2054 23.1771L36.1027 27.175ZM36.1027 18.4731V15.5533L33.332 14.6517L30.5634 15.5533V18.4731L33.332 22.2948L36.1027 18.4731ZM36.1027 12.8763V9.95854L33.332 6.13686L30.5634 9.95854V12.8763L33.332 13.7802L36.1027 12.8763ZM36.1027 9.60572V8.89985L32.1968 3.50957L30.5634 4.0411V4.47787L32.0378 3.99579L36.1027 9.60572ZM36.1027 8.54703V4.69522L34.7077 4.2412L33.845 5.43122L36.1027 8.54703ZM33.2054 5.96045L32.9499 5.60763L28.1039 12.2933L25.4621 11.4347L25.8762 12.0049L28.2628 12.7818L33.2054 5.96045ZM33.2054 23.5299L33.0765 23.3535L32.9499 23.1771L28.1039 29.8648L25.4621 29.0042L25.8762 29.5743L28.0545 30.2843L28.2628 30.351L33.2054 23.5299ZM33.2054 41.0994L32.9499 40.7486L32.0378 42.0051L25.4621 39.862L25.8762 40.4345L32.1968 42.4937L33.2054 41.0994ZM33.2054 51.9595L32.9499 51.6065L28.1039 58.2942L25.4621 57.4335L25.8762 58.0037L28.2628 58.7806L33.2054 51.9595ZM33.2054 69.5311L33.0765 69.3524L32.9499 69.1759L28.1039 75.8637L25.4621 75.003L25.8762 75.5755L28.0545 76.2855L28.2628 76.3522L33.2054 69.5311ZM33.2054 87.1003L32.9499 86.7475L32.0378 88.0042L25.4621 85.8631L25.8762 86.4333L32.1968 88.4925L33.2054 87.1003ZM30.3574 15.4026L32.9994 14.5418L32.3298 14.3246L29.9432 15.1013V21.8127L27.3012 22.6734L27.9708 22.893L30.3574 22.114V15.4026ZM30.3574 32.9742L32.9994 32.1135L32.3298 31.8962L29.9432 32.6729V41.1058L30.3574 41.2392V32.9742ZM30.3574 61.4036L32.9994 60.5429L32.3298 60.3235L29.9432 61.1025V67.8139L27.3012 68.6725L27.9708 68.8919L30.3574 68.1152V61.4036ZM30.3574 78.973L32.9994 78.1124L32.3298 77.895L29.9432 78.6717V87.1047L30.3574 87.2381V78.973ZM32.8212 5.43122L31.9584 4.2412L30.5634 4.69522V8.54703L32.8212 5.43122ZM32.8212 23.0005L30.5634 19.8846V22.2647L28.3057 23.0005L30.5634 23.7365V26.1163L32.8212 23.0005ZM32.8212 40.572L30.5634 37.4541V41.3059L31.9584 41.762L32.8212 40.572ZM32.8212 51.4301L31.9584 50.2401L30.5634 50.6941V54.5459L32.8212 51.4301ZM32.8212 69.0016L30.5634 65.8837V68.2656L28.3057 69.0016L30.5634 69.7353V72.1174L32.8212 69.0016ZM32.8212 86.5711L30.5634 83.4553V87.3068L31.9584 87.7609L32.8212 86.5711ZM29.7372 14.9507L31.9949 14.2147L29.7372 13.481V11.0989L28.3401 13.0249L26.0822 12.291L27.4774 14.2147L27.2218 14.5698L26.0822 16.1407L27.9279 15.5402L28.3401 15.4068L29.7372 17.3328V14.9507ZM29.7372 32.5222L31.9949 31.7862L29.7372 31.0505V28.6704L28.3401 30.5964L27.9279 30.4607L26.0822 29.8604L27.2218 31.4334L27.4774 31.7862L26.0822 33.7123L28.3401 32.9763L29.7372 34.902V32.5222ZM29.7372 60.9518L31.9949 60.2158L29.7372 59.4798V57.1L28.3401 59.0258L26.0822 58.2901L27.4774 60.2158L27.2218 60.5687L26.0822 62.1416L27.9279 61.5413L28.3401 61.4059L29.7372 63.3317V60.9518ZM29.7372 78.5211L31.9949 77.7853L29.7372 77.0516V74.6695L28.3401 76.5953L27.9279 76.4598L26.0822 75.8595L27.2218 77.4323L27.4774 77.7853L26.0822 79.7111L28.3401 78.9751L29.7372 80.9011V78.5211ZM30.3574 89.8332V88.1116L29.9432 87.9762V89.5319L23.3675 91.6729L24.0369 91.8924L30.3574 89.8332ZM30.3574 72.4015V69.886L22.3586 67.2824L22.1033 67.6352L29.9432 70.1893V72.9739L30.3574 72.4015ZM30.3574 54.832V48.168L28.7241 47.6364L28.4688 47.9893L29.9432 48.4693V55.4022L30.3574 54.832ZM30.3574 43.832V42.1128L29.9432 41.9773V43.5307L23.3675 45.6741L24.0369 45.8914L30.3574 43.832ZM30.3574 26.4026V23.8871L22.3586 21.2812L22.1033 21.6343L29.9432 24.1884V26.9728L30.3574 26.4026ZM30.3574 8.83108V2.16913L28.7241 1.6376L28.4688 1.99042L29.9432 2.4702V9.40332L30.3574 8.83108ZM29.7372 89.3812V87.9094L26.0822 86.7194L28.3401 89.8352L29.7372 89.3812ZM29.7372 87.0359V82.3126L28.0245 79.9521L25.2561 80.8537L23.5434 83.2142L25.2561 85.577L29.7372 87.0359ZM29.7372 81.9598V81.2539L28.2628 79.2205L25.2066 80.2146L21.8952 81.2949L20.264 79.0418V79.7456L21.7386 81.7811L24.7925 80.787L28.1039 79.7067L29.7372 81.9598ZM29.7372 73.2578V70.34L26.9665 69.4363L22.4852 70.8973L25.2561 74.7189L28.0245 75.6206L29.7372 73.2578ZM29.7372 67.6632V64.7432L28.0245 62.3806L25.2561 63.2822L22.4852 67.1059L26.9665 68.5648L29.7372 67.6632ZM29.7372 64.3903V63.6845L28.2628 61.649L28.0545 61.7177L20.264 64.2549V64.6916L28.1039 62.1375L29.7372 64.3903ZM29.7372 55.6885V50.9652L25.2561 52.4241L23.5434 54.7869L25.2561 57.1474L28.0245 58.0511L29.7372 55.6885ZM29.7372 50.7458V50.3091L21.8952 52.8632L20.264 50.6103V51.316L21.7386 53.3517L21.9446 53.285L29.7372 50.7458ZM29.7372 50.0917V48.6197L28.3401 48.1657L26.0822 51.2815L29.7372 50.0917ZM29.7372 43.3803V41.9083L26.0822 40.7185L28.3401 43.8364L29.7372 43.3803ZM29.7372 41.0368V36.3138L28.0245 33.951L25.2561 34.8549L23.5434 37.2154L25.2561 39.5779L29.7372 41.0368ZM29.7372 35.9607V35.2551L28.2628 33.2194L25.2066 34.2157L21.8952 35.2937L20.264 33.0409V33.7465L21.7386 35.7823L24.7925 34.7859L28.1039 33.7079L29.7372 35.9607ZM29.7372 27.2589V24.3391L26.9665 23.4375L22.4852 24.8963L25.2561 28.7178L28.0245 29.6217L29.7372 27.2589ZM29.7372 21.6621V18.7422L28.0245 16.3818L25.2561 17.2834L22.4852 21.1048L26.9665 22.5637L29.7372 21.6621ZM29.7372 18.3915V17.6835L28.2628 15.6501L28.0545 15.7168L20.264 18.2558V18.6905L28.1039 16.1363L29.7372 18.3915ZM29.7372 9.68944V4.96432L25.2561 6.42528L23.5434 8.78577L25.2561 11.1486L28.0245 12.0502L29.7372 9.68944ZM29.7372 4.74697V4.30997L21.8952 6.86435L20.264 4.61127V5.31714L21.7386 7.35264L21.9446 7.28387L29.7372 4.74697ZM29.7372 4.09262V2.62085L28.3401 2.16683L26.0822 5.28264L29.7372 4.09262ZM29.6534 46.0012L28.6448 44.609L28.2305 44.7424L29.1428 46.0012L25.0779 51.6088L25.7475 51.3914L29.6534 46.0012ZM28.8872 46.0012L28.0245 44.8111L24.3718 46.0012L28.0245 47.1909L28.8872 46.0012ZM28.1339 43.9031L23.2879 37.2154L24.9212 34.9623L24.5865 35.072L24.2516 35.1797L22.7773 37.2154L22.9039 37.3918L27.7198 44.0386L28.1339 43.9031ZM28.1339 89.9019L23.2879 83.2142L24.9212 80.9634L24.5865 81.0711L24.2516 81.1808L22.7773 83.2142L22.9039 83.3929L27.7198 90.0376L28.1339 89.9019ZM27.6405 47.7204L27.8979 47.3676L20.0559 44.8132V42.0288L19.6416 42.599V45.1145L27.6405 47.7204ZM24.7432 5.71941L27.5138 1.89796L23.0326 0.43677L20.264 1.33837V4.25845L21.9746 6.62101L24.7432 5.71941ZM27.5138 44.1053L24.7432 40.2838L21.9746 39.3799L20.264 41.7427V44.6628L23.0326 45.5644L27.5138 44.1053ZM24.7432 51.7185L27.5138 47.8968L23.0326 46.4358L20.264 47.3395V50.2594L21.9746 52.6201L24.7432 51.7185ZM27.5138 90.1043L24.7432 86.2827L21.9746 85.3811L20.264 87.7438V90.6616L23.0326 91.5653L27.5138 90.1043ZM27.2218 14.2147L23.2879 8.78577L24.9212 6.53292L24.2516 6.75234L22.9039 8.60936L22.7773 8.78577L26.7112 14.2147L25.0779 16.4678L25.7475 16.2504L27.0952 14.3913L27.2218 14.2147ZM27.2218 31.7862L27.0952 31.6098L22.2792 24.9651L21.8652 25.0985L26.7112 31.7862L25.0779 34.0393L25.4126 33.9296L25.7475 33.822L27.2218 31.7862ZM27.2218 60.2158L23.2879 54.7869L24.9212 52.5338L24.2516 52.7512L22.9039 54.6105L22.7773 54.7869L26.7112 60.2158L25.0779 62.4687L25.7475 62.2513L27.0952 60.3923L27.2218 60.2158ZM27.2218 77.7853L27.0952 77.6089L22.2792 70.964L21.8652 71.0974L26.7112 77.7853L25.0779 80.0382L25.4126 79.9305L25.7475 79.8208L27.2218 77.7853ZM20.0559 25.4709L26.6316 23.3275L25.962 23.1104L19.6416 25.1696V26.8909L20.0559 27.0243V25.4709ZM20.0559 71.4697L26.6316 69.3287L25.962 69.1093L19.6416 71.1684V72.89L20.0559 73.0234V71.4697ZM26.4556 14.2147L24.7432 11.8542L21.9746 10.9526L20.264 13.3131V18.0364L24.7432 16.5775L26.4556 14.2147ZM26.4556 31.7862L24.7432 29.4237L20.264 27.9648V32.6878L21.9746 35.0506L24.7432 34.149L26.4556 31.7862ZM26.4556 60.2158L24.7432 57.8533L21.9746 56.9514L20.264 59.3122V64.0375L24.7432 62.5763L26.4556 60.2158ZM26.4556 77.7853L24.7432 75.4248L20.264 73.9636V78.6869L21.9746 81.0495L24.7432 80.1479L26.4556 77.7853ZM21.9746 24.1905L25.6273 23.0005L21.9746 21.8107L21.1118 23.0005L21.9746 24.1905ZM21.9746 70.1916L25.6273 69.0016L21.9746 67.8095L21.1118 69.0016L21.9746 70.1916ZM20.8563 23.0005L24.9212 17.3931L24.2516 17.6104L20.3457 23.0005L21.3543 24.3929L21.7686 24.2593L20.8563 23.0005ZM20.8563 69.0016L24.9212 63.3919L24.2516 63.6113L20.3457 69.0016L21.3543 70.3938L21.7686 70.2583L20.8563 69.0016ZM24.537 11.5681L24.1229 10.9979L21.7386 10.221L16.7937 17.0423L17.0492 17.3951L21.8952 10.7074L24.537 11.5681ZM24.537 29.1396L24.1229 28.5672L17.8023 26.508L16.7937 27.9025L17.0492 28.253L17.9613 26.9965L24.537 29.1396ZM24.537 39.9977L24.1229 39.4273L21.9446 38.7173L21.7386 38.6506L16.7937 45.4717L16.9226 45.6481L17.0492 45.8247L21.8952 39.1368L24.537 39.9977ZM24.537 57.5692L24.1229 56.9968L21.7386 56.2201L16.7937 63.0412L17.0492 63.394L21.8952 56.7083L24.537 57.5692ZM24.537 75.1385L24.1229 74.5683L17.8023 72.5091L16.7937 73.9013L17.0492 74.2541L17.9613 72.9953L24.537 75.1385ZM24.537 85.9986L24.1229 85.4264L21.9446 84.7161L21.7386 84.6494L16.7937 91.4708L16.9226 91.6472L17.0492 91.8236L21.8952 85.1379L24.537 85.9986ZM22.7773 8.43295L23.9169 6.85998L22.0732 7.46235L21.659 7.59575L20.264 5.66996V8.05L18.0042 8.78577L20.264 9.52177V11.9016L21.659 9.97579L23.9169 10.7116L22.5217 8.78577L22.7773 8.43295ZM21.659 20.8359L23.9169 17.7201L20.264 18.9099V20.3819L21.659 20.8359ZM23.9169 28.2833L21.659 25.1675L20.264 25.6215V27.0933L23.9169 28.2833ZM22.5217 37.2154L23.9169 35.2894L21.659 36.0254L20.264 34.0996V36.4794L18.0042 37.2154L20.264 37.9512V40.3312L21.659 38.4052L22.0732 38.5409L23.9169 39.1412L22.7773 37.5682L22.5217 37.2154ZM22.7773 54.4339L23.9169 52.8611L22.0732 53.4614L21.659 53.5948L20.264 51.6688V54.0509L18.0042 54.7869L20.264 55.5206V57.9027L21.659 55.9767L23.9169 56.7127L22.5217 54.7869L22.7773 54.4339ZM21.659 66.8348L23.9169 63.719L20.264 64.909V66.3808L21.659 66.8348ZM23.9169 74.2822L21.659 71.1664L20.264 71.6204V73.0922L23.9169 74.2822ZM22.5217 83.2142L23.9169 81.2884L21.659 82.0265L20.264 80.0984V82.4805L18.0042 83.2142L20.264 83.9502V86.3321L21.659 84.4063L22.0732 84.5397L23.9169 85.14L22.7773 83.5671L22.5217 83.2142ZM20.0559 1.18772L22.6979 0.32706L22.0283 0.10971L19.6416 0.88665V7.59805L17.002 8.45871L17.6716 8.67813L20.0559 7.89935V1.18772ZM20.0559 47.1889L22.6979 46.3282L22.0283 46.1088L19.6416 46.8876V53.599L17.002 54.4599L17.6716 54.6772L20.0559 53.9003V47.1889ZM19.4356 46.7369L21.6934 46.0012L19.4356 45.2652V42.8853L17.1779 46.0012L19.4356 49.117V46.7369ZM21.2749 21.3652L21.5303 21.0123L20.0559 20.5323V13.5994L19.6416 14.1696V20.8336L21.2749 21.3652ZM21.2749 67.364L21.5303 67.0112L20.0559 66.5314V59.5983L19.6416 60.1708V66.8327L21.2749 67.364ZM20.0903 23.0005L21.1483 21.5416L19.4356 20.9843V19.179L17.7253 19.7363L16.667 18.2774L15.6091 19.7363L13.8964 19.179V20.9843L12.186 21.5416L13.244 23.0005L12.186 24.4617L13.8964 25.0189V26.8221L15.6091 26.2648L16.667 27.7237L17.7253 26.2648L19.4356 26.8221V25.0189L21.1483 24.4617L20.0903 23.0005ZM20.0903 69.0016L21.1483 67.5407L19.4356 66.9834V65.1799L17.7253 65.7374L16.667 64.2763L15.6091 65.7374L13.8964 65.1799V66.9834L12.186 67.5407L13.244 69.0016L12.186 70.4605L13.8964 71.0178V72.8233L15.6091 72.266L16.667 73.7249L17.7253 72.266L19.4356 72.8233V71.0178L21.1483 70.4605L20.0903 69.0016ZM20.0559 86.6162V84.1009L13.6904 82.0265V79.2421L13.2761 79.8144V82.3299L19.6416 84.4019V87.1866L20.0559 86.6162ZM20.0559 82.3299V73.8969L19.6416 73.7615V82.0265L17.002 82.8872L17.6716 83.1066L20.0559 82.3299ZM20.0559 58.1868V55.6713L13.6904 53.599V50.8125L13.2761 51.385V53.9003L19.6416 55.9726V58.759L20.0559 58.1868ZM20.0559 40.6173V38.1018L13.6904 36.0274V33.243L13.2761 33.8132V36.3287L19.6416 38.4031V41.1875L20.0559 40.6173ZM20.0559 36.3287V27.8958L19.6416 27.7624V36.0274L17.002 36.8883L17.6716 37.1057L20.0559 36.3287ZM20.0559 12.1877V9.67242L13.6904 7.59805V4.81367L13.2761 5.38384V7.89935L19.6416 9.97349V12.7581L20.0559 12.1877ZM19.4356 87.4727V84.5526L16.667 83.651L13.8964 84.5526V87.4727L16.667 91.2941L19.4356 87.4727ZM19.4356 81.8779V78.9581L16.667 75.1364L13.8964 78.9581V81.8779L16.667 82.7795L19.4356 81.8779ZM19.4356 78.605V77.8994L15.5297 72.5091L13.8964 73.0406V73.4774L15.3707 72.9953L19.4356 78.605ZM19.4356 77.5463V73.6948L18.0407 73.2407L17.1779 74.4305L19.4356 77.5463ZM19.4356 64.9605V64.5237L17.9613 65.0058L13.8964 59.3961V60.1018L17.8023 65.492L19.4356 64.9605ZM19.4356 64.3064V60.4548L17.1779 63.5704L18.0407 64.7604L19.4356 64.3064ZM19.4356 59.0431V56.1253L16.667 55.2216L13.8964 56.1253V59.0431L16.667 62.8648L19.4356 59.0431ZM19.4356 53.4486V50.5285L16.667 46.7068L13.8964 50.5285V53.4486L16.667 54.3502L19.4356 53.4486ZM19.4356 50.1757V49.4698L16.7937 45.8247L13.8964 41.8267V42.5323L16.5384 46.1776L19.4356 50.1757ZM19.4356 41.4738V38.5538L16.667 37.6522L13.8964 38.5538V41.4738L16.667 45.2953L19.4356 41.4738ZM19.4356 35.877V32.9569L16.667 29.1353L13.8964 32.9569V35.877L16.667 36.7786L19.4356 35.877ZM19.4356 32.6041V31.8982L15.5297 26.508L13.8964 27.0416V27.4763L15.3707 26.9965L19.4356 32.6041ZM19.4356 31.5454V27.6936L18.0407 27.2396L17.1779 28.4296L19.4356 31.5454ZM19.4356 18.9617V18.5249L17.9613 19.0047L13.8964 13.397V14.1029L17.8023 19.4932L19.4356 18.9617ZM19.4356 18.3075V14.4557L17.1779 17.5715L18.0407 18.7616L19.4356 18.3075ZM19.4356 13.0442V10.1241L16.667 9.22254L13.8964 10.1241V13.0442L16.667 16.8657L19.4356 13.0442ZM19.4356 7.4474V4.52962L16.667 0.70587L13.8964 4.52962V7.4474L16.667 8.35107L19.4356 7.4474ZM16.5384 0.52946L16.4117 0.35282L16.283 0.17871L11.437 6.86435L8.79507 6.00346L9.20913 6.57593L11.3875 7.28387L11.5958 7.35264L16.5384 0.52946ZM16.5384 18.101L16.283 17.748L15.3707 19.0047L8.79507 16.8636L9.20913 17.4338L15.5297 19.4932L16.5384 18.101ZM16.5384 28.9588L16.283 28.606L11.437 35.2937L8.79507 34.4331L9.20913 35.0053L11.5958 35.7823L16.5384 28.9588ZM16.5384 46.5304L16.4117 46.354L16.283 46.1776L11.437 52.8632L8.79507 52.0046L9.20913 52.5748L11.3875 53.285L11.5958 53.3517L16.5384 46.5304ZM16.5384 64.0998L16.283 63.747L15.3707 65.0058L8.79507 62.8624L9.20913 63.4328L15.5297 65.492L16.5384 64.0998ZM16.5384 74.96L16.283 74.6069L11.437 81.2949L8.79507 80.4342L9.20913 81.0044L11.5958 81.7811L16.5384 74.96ZM13.6904 9.97349L16.3324 9.11283L15.6628 8.89548L13.2761 9.67242V18.1051L13.6904 18.2385V9.97349ZM13.6904 38.4031L16.3324 37.5424L15.6628 37.3251L13.2761 38.1018V44.8132L10.6344 45.6741L11.304 45.8914L13.6904 45.1145V38.4031ZM13.6904 55.9726L16.3324 55.114L15.6628 54.8946L13.2761 55.6713V64.1042L13.6904 64.2397V55.9726ZM13.6904 84.4019L16.3324 83.5434L15.6628 83.3239L13.2761 84.1009V90.8123L10.6344 91.6729L11.304 91.8924L13.6904 91.1136V84.4019ZM16.1541 17.5715L13.8964 14.4557V18.3075L15.2937 18.7616L16.1541 17.5715ZM16.1541 28.4296L15.2937 27.2396L13.8964 27.6936V31.5454L16.1541 28.4296ZM16.1541 46.0012L13.8964 42.8853V45.2652L11.6387 46.0012L13.8964 46.7369V49.117L16.1541 46.0012ZM16.1541 63.5704L13.8964 60.4548V64.3064L15.2937 64.7604L16.1541 63.5704ZM16.1541 74.4305L15.2937 73.2407L13.8964 73.6948V77.5463L16.1541 74.4305ZM13.0701 9.52177L15.3278 8.78577L13.0701 8.05V5.66996L11.6751 7.59575L11.2609 7.46235L9.41536 6.85998L10.5571 8.43295L10.8124 8.78577L9.41536 10.7116L11.6751 9.97579L13.0701 11.9016V9.52177ZM13.0701 37.9512L15.3278 37.2154L13.0701 36.4794V34.0996L11.6751 36.0254L9.41536 35.2894L10.8124 37.2154L10.5571 37.5682L9.41536 39.1412L11.2609 38.5409L11.6751 38.4052L13.0701 40.3312V37.9512ZM13.0701 55.5206L15.3278 54.7869L13.0701 54.0509V51.6688L11.6751 53.5948L11.2609 53.4614L9.41536 52.8611L10.5571 54.4339L10.8124 54.7869L9.41536 56.7127L11.6751 55.9767L13.0701 57.9027V55.5206ZM13.0701 83.9502L15.3278 83.2142L13.0701 82.4805V80.0984L11.6751 82.0265L9.41536 81.2884L10.8124 83.2142L10.5571 83.5671L9.41536 85.14L11.2609 84.5397L11.6751 84.4063L13.0701 86.3321V83.9502ZM13.6904 77.8327V71.1684L12.0571 70.6369L11.8018 70.99L13.2761 71.4697V78.4029L13.6904 77.8327ZM13.6904 66.8327V65.1112L13.2761 64.9778V66.5314L6.70045 68.6725L7.37006 68.8919L13.6904 66.8327ZM13.6904 49.4031V46.8876L5.69179 44.2819L5.43624 44.6347L13.2761 47.1889V49.9733L13.6904 49.4031ZM13.6904 31.8315V25.1696L12.0571 24.6381L11.8018 24.9888L13.2761 25.4709V32.404L13.6904 31.8315ZM13.6904 20.8336V19.1123L13.2761 18.9766V20.5323L6.70045 22.6734L7.37006 22.893L13.6904 20.8336ZM13.0701 90.6616V87.7438L11.3574 85.3811L8.58907 86.2827L5.82048 90.1043L10.3015 91.5653L13.0701 90.6616ZM13.0701 87.3887V86.6852L11.5958 84.6494L11.3875 84.7161L3.59694 87.2553V87.6921L11.437 85.1379L13.0701 87.3887ZM13.0701 78.6869V73.9636L8.58907 75.4248L6.8764 77.7853L8.58907 80.1479L11.3574 81.0495L13.0701 78.6869ZM13.0701 73.7463V73.3095L5.22818 75.8637L3.59694 73.6108V74.3164L5.0715 76.3522L5.2775 76.2855L13.0701 73.7463ZM13.0701 73.0922V71.6204L11.6751 71.1664L9.41536 74.2822L13.0701 73.0922ZM13.0701 66.3808V64.909L9.41536 63.719L11.6751 66.8348L13.0701 66.3808ZM13.0701 64.0375V59.3122L11.3574 56.9514L8.58907 57.8533L6.8764 60.2158L8.58907 62.5763L13.0701 64.0375ZM13.0701 58.9614V58.2556L11.5958 56.2201L8.53952 57.2162L5.22818 58.2942L3.59694 56.0413V56.7472L5.0715 58.7806L8.12753 57.7866L11.437 56.7083L13.0701 58.9614ZM13.0701 50.2594V47.3395L10.3015 46.4358L5.82048 47.8968L8.58907 51.7185L11.3574 52.6201L13.0701 50.2594ZM13.0701 44.6628V41.7427L11.3574 39.3799L8.58907 40.2838L5.82048 44.1053L10.3015 45.5644L13.0701 44.6628ZM13.0701 41.3899V40.684L11.5958 38.6506L11.3875 38.7173L3.59694 41.2565V41.691L11.437 39.1368L13.0701 41.3899ZM13.0701 32.6878V27.9648L8.58907 29.4237L6.8764 31.7862L8.58907 34.149L11.3574 35.0506L13.0701 32.6878ZM13.0701 27.7454V27.3107L5.22818 29.8648L3.59694 27.612V28.3176L5.0715 30.351L5.2775 30.2843L13.0701 27.7454ZM13.0701 27.0933V25.6215L11.6751 25.1675L9.41536 28.2833L13.0701 27.0933ZM13.0701 20.3819V18.9099L9.41536 17.7201L11.6751 20.8359L13.0701 20.3819ZM13.0701 18.0364V13.3131L11.3574 10.9526L8.58907 11.8542L6.8764 14.2147L8.58907 16.5775L13.0701 18.0364ZM13.0701 12.9603V12.2544L11.5958 10.221L8.53952 11.2153L5.22818 12.2933L3.59694 10.0402V10.7461L5.0715 12.7818L8.12753 11.7854L11.437 10.7074L13.0701 12.9603ZM13.0701 4.25845V1.33837L10.3015 0.43677L5.82048 1.89796L8.58907 5.71941L11.3574 6.62101L13.0701 4.25845ZM12.9887 23.0005L11.9777 21.6083L11.5657 21.744L12.4757 23.0005L8.41313 28.6104L9.08251 28.3907L12.9887 23.0005ZM12.9887 69.0016L11.9777 67.6073L11.5657 67.7428L12.4757 69.0016L8.41313 74.6092L9.08251 74.3919L12.9887 69.0016ZM12.2202 23.0005L11.3574 21.8107L7.70475 23.0005L11.3574 24.1905L12.2202 23.0005ZM12.2202 69.0016L11.3574 67.8095L7.70475 69.0016L11.3574 70.1916L12.2202 69.0016ZM11.4671 20.9026L6.62108 14.2147L8.25415 11.9639L7.91946 12.0715L7.58454 12.1813L6.11021 14.2147L6.2389 14.3913L11.0528 21.0381L11.4671 20.9026ZM11.4671 66.9036L6.62108 60.2158L8.25415 57.963L7.91946 58.0727L7.58454 58.1803L6.11021 60.2158L6.2389 60.3923L11.0528 67.0369L11.4671 66.9036ZM10.9755 24.7199L11.2308 24.3669L3.38888 21.8127V19.0284L2.97688 19.5985V22.114L10.9755 24.7199ZM10.9755 70.7209L11.2308 70.368L3.38888 67.8139V65.0295L2.97688 65.5997V68.1152L10.9755 70.7209ZM10.8468 21.1048L8.07821 17.2834L5.30755 16.3818L3.59694 18.7422V21.6621L6.36553 22.5637L10.8468 21.1048ZM8.07821 28.7178L10.8468 24.8963L6.36553 23.4375L3.59694 24.3391V27.2589L5.30755 29.6217L8.07821 28.7178ZM10.8468 67.1059L8.07821 63.2822L5.30755 62.3806L3.59694 64.7432V67.6632L6.36553 68.5648L10.8468 67.1059ZM8.07821 74.7189L10.8468 70.8973L6.36553 69.4363L3.59694 70.34V73.2578L5.30755 75.6206L8.07821 74.7189ZM10.5571 8.78577L10.4281 8.60936L5.61219 1.96466L5.19813 2.10013L10.0441 8.78577L8.41313 11.0386L8.74782 10.9312L9.08251 10.8215L10.5571 8.78577ZM10.5571 37.2154L6.62108 31.7862L8.25415 29.5334L7.58454 29.7507L6.2389 31.6098L6.11021 31.7862L10.0441 37.2154L8.41313 39.4682L9.08251 39.2509L10.4281 37.3918L10.5571 37.2154ZM10.5571 54.7869L10.4281 54.6105L5.61219 47.9635L5.19813 48.099L10.0441 54.7869L8.41313 57.0398L8.74782 56.9301L9.08251 56.8203L10.5571 54.7869ZM10.5571 83.2142L6.62108 77.7853L8.25415 75.5322L7.58454 75.7519L6.2389 77.6089L6.11021 77.7853L10.0441 83.2142L8.41313 85.4694L9.08251 85.2497L10.4281 83.3929L10.5571 83.2142ZM3.38888 2.4702L9.96477 0.32706L9.29722 0.10971L2.97688 2.16913V3.89045L3.38888 4.02385V2.4702ZM3.38888 48.4693L9.96477 46.3282L9.29722 46.1088L2.97688 48.168V49.8893L3.38888 50.025V48.4693ZM9.78859 8.78577L8.07821 6.42528L3.59694 4.96432V9.68944L5.30755 12.0502L8.07821 11.1486L9.78859 8.78577ZM9.78859 37.2154L8.07821 34.8549L5.30755 33.951L3.59694 36.3138V41.0368L8.07821 39.5779L9.78859 37.2154ZM9.78859 54.7869L8.07821 52.4241L3.59694 50.9652V55.6885L5.30755 58.0511L8.07821 57.1474L9.78859 54.7869ZM9.78859 83.2142L8.07821 80.8537L5.30755 79.9521L3.59694 82.3126V87.0359L8.07821 85.577L9.78859 83.2142ZM5.30755 47.1909L8.96253 46.0012L5.30755 44.8111L4.44686 46.0012L5.30755 47.1909ZM4.18947 46.0012L8.25415 40.3915L7.58454 40.6109L3.67861 46.0012L4.68726 47.3933L5.10155 47.2576L4.18947 46.0012ZM7.87014 6.13916L7.45792 5.56876L1.13758 3.50957L0.128921 4.90176L0.38424 5.25481L1.29426 3.99579L7.87014 6.13916ZM7.87014 16.997L7.45792 16.4268L5.2775 15.7168L5.0715 15.6501L0.128921 22.4712L0.255548 22.6476L0.38424 22.824L5.22818 16.1363L7.87014 16.997ZM7.87014 34.5685L7.45792 33.9984L5.0715 33.2194L0.128921 40.0428L0.38424 40.3956L5.22818 33.7079L7.87014 34.5685ZM7.87014 52.138L7.45792 51.5678L1.13758 49.5084L0.128921 50.9006L0.38424 51.2537L1.29426 49.9969L7.87014 52.138ZM7.87014 62.9982L7.45792 62.4257L5.2775 61.7177L5.0715 61.649L0.128921 68.4724L0.255548 68.6488L0.38424 68.8231L5.22818 62.1375L7.87014 62.9982ZM7.87014 80.5676L7.45792 79.9972L5.0715 79.2205L0.128921 86.0416L0.38424 86.3947L5.22818 79.7067L7.87014 80.5676ZM7.24985 5.28264L4.99213 2.16683L3.59694 2.62085V4.09262L7.24985 5.28264ZM5.85489 14.2147L7.24985 12.291L4.99213 13.0249L3.59694 11.0989V13.481L1.33922 14.2147L3.59694 14.9507V17.3328L4.99213 15.4068L5.40619 15.5402L7.24985 16.1407L6.11021 14.5698L5.85489 14.2147ZM6.11021 31.4334L7.24985 29.8604L5.40619 30.4607L4.99213 30.5964L3.59694 28.6704V31.0505L1.33922 31.7862L3.59694 32.5222V34.902L4.99213 32.9763L7.24985 33.7123L5.85489 31.7862L6.11021 31.4334ZM4.99213 43.8364L7.24985 40.7185L3.59694 41.9083V43.3803L4.99213 43.8364ZM7.24985 51.2815L4.99213 48.1657L3.59694 48.6197V50.0917L7.24985 51.2815ZM5.85489 60.2158L7.24985 58.2901L4.99213 59.0258L3.59694 57.1V59.4798L1.33922 60.2158L3.59694 60.9518V63.3317L4.99213 61.4059L5.40619 61.5413L7.24985 62.1416L6.11021 60.5687L5.85489 60.2158ZM6.11021 77.4323L7.24985 75.8595L5.40619 76.4598L4.99213 76.5953L3.59694 74.6695V77.0516L1.33922 77.7853L3.59694 78.5211V80.9011L4.99213 78.9751L7.24985 79.7111L5.85489 77.7853L6.11021 77.4323ZM4.99213 89.8352L7.24985 86.7194L3.59694 87.9094V89.3812L4.99213 89.8352ZM3.38888 24.1884L6.03084 23.3275L5.36123 23.1104L2.97688 23.8871V30.5985L0.334919 31.4592L1.00453 31.6765L3.38888 30.8998V24.1884ZM3.38888 70.1893L6.03084 69.3287L5.36123 69.1093L2.97688 69.886V76.5974L0.334919 77.4583L1.00453 77.6756L3.38888 76.8987V70.1893ZM2.76859 23.7365L5.02631 23.0005L2.76859 22.2647V19.8846L0.510867 23.0005L2.76859 26.1163V23.7365ZM2.76859 69.7353L5.02631 69.0016L2.76859 68.2656V65.8837L0.510867 69.0016L2.76859 72.1174V69.7353ZM4.60789 44.3656L4.86551 44.0107L3.38888 43.5307V36.5978L2.97688 37.1701V43.832L4.60789 44.3656ZM4.60789 90.3647L4.86551 90.0117L3.38888 89.5319V82.5988L2.97688 83.1692V89.8332L4.60789 90.3647ZM3.38888 59.3292V50.8965L2.97688 50.7631V59.0281L0.334919 59.8888L1.00453 60.1061L3.38888 59.3292ZM3.38888 13.3303V4.89739L2.97688 4.76192V13.029L0.334919 13.8876L1.00453 14.1073L3.38888 13.3303ZM2.76859 87.3068V83.4553L0.510867 86.5711L1.37363 87.7609L2.76859 87.3068ZM2.76859 54.5459V50.6941L1.37363 50.2401L0.510867 51.4301L2.76859 54.5459ZM2.76859 41.3059V37.4541L0.510867 40.572L1.37363 41.762L2.76859 41.3059ZM2.76859 8.54703V4.69522L1.37363 4.2412L0.510867 5.43122L2.76859 8.54703Z" fill="#C4AC88"/>
</g>
</g>
<defs>
<clipPath id="clip0_4042_561">
<rect width="100" height="92" fill="white"/>
</clipPath>
<clipPath id="clip1_4042_561">
<rect width="100" height="92" fill="white"/>
</clipPath>
</defs>
</svg>
